<svg width="771" height="620" viewBox="0 0 771 620" fill="none" xmlns="http://www.w3.org/2000/svg">
<path d="M726.28 316.266C696.044 347.108 672.44 381.5 651.436 415.702C642.987 429.46 634.97 443.165 627.114 456.597C615.411 476.605 604.064 496.005 592.172 514.063C572.324 544.205 551.071 570.422 524.397 589.109C497.745 607.779 465.632 618.966 423.994 618.966C382.344 618.966 354.065 608.734 331.448 591.299C308.784 573.827 291.735 549.073 272.629 519.835C270.928 517.232 269.212 514.595 267.474 511.926C230.184 454.629 183.154 382.369 73.008 316.109C15.7018 281.636 -4.02383 240.455 2.05672 199.552C8.15704 158.516 40.2695 117.404 87.4656 83.2779C181.848 15.0324 335.789 -24.7314 459.154 19.9066C582.927 64.6923 679.766 108.37 730.611 156.131C756.011 179.991 769.81 204.755 769.896 231.086C769.982 257.426 756.346 285.597 726.28 316.266Z" stroke="#6EC4B3" strokeWidth="2"/>
</svg>
