<svg width="780" height="648" viewBox="0 0 780 648" fill="none" xmlns="http://www.w3.org/2000/svg">
<path d="M726.994 316.966C606.354 440.024 591.337 619.966 423.994 619.966C256.652 619.966 302.631 455.408 72.4926 316.966C-157.646 178.524 211.996 -70.5879 459.494 18.9663C706.993 108.52 847.633 193.908 726.994 316.966Z" fill="#CBE9E3"/>
<path d="M735.28 344.266C705.044 375.108 681.44 409.5 660.436 443.702C651.987 457.46 643.97 471.165 636.114 484.597C624.411 504.605 613.064 524.005 601.172 542.063C581.324 572.205 560.071 598.422 533.397 617.109C506.745 635.779 474.632 646.966 432.994 646.966C391.344 646.966 363.065 636.734 340.448 619.299C317.784 601.827 300.735 577.073 281.629 547.835C279.928 545.232 278.212 542.595 276.474 539.926C239.184 482.629 192.154 410.369 82.008 344.109C24.7018 309.636 4.97617 268.455 11.0567 227.552C17.157 186.516 49.2695 145.404 96.4656 111.278C190.848 43.0324 344.789 3.26856 468.154 47.9066C591.927 92.6923 688.766 136.37 739.611 184.131C765.011 207.991 778.81 232.755 778.896 259.086C778.982 285.426 765.346 313.597 735.28 344.266Z" stroke="#6EC4B3" strokeWidth="2"/>
</svg>
