<svg width="500" height="500" viewBox="0 0 500 500" fill="none" xmlns="http://www.w3.org/2000/svg">
<path d="M412.281 437.746C322.655 476.944 177.346 476.944 87.721 437.746C-1.90602 398.558 -1.90602 335.008 87.721 295.809C177.346 256.62 322.655 256.62 412.281 295.809C501.906 335.008 501.906 398.558 412.281 437.746Z" fill="#FAFAFA"/>
<path d="M434.752 383.349C415.553 392.5 384.426 392.5 365.227 383.349C346.028 374.2 346.028 359.363 365.227 350.212C384.426 341.063 415.553 341.063 434.752 350.212C453.951 359.363 453.951 374.2 434.752 383.349Z" fill="#FAFAFA"/>
<path d="M94.655 341.065C94.655 341.065 95.6101 321.891 86.0991 308.362C76.5881 294.832 64.5611 294.555 59.7541 296.48C54.9471 298.405 51.267 304.816 58.7311 310.321C66.1951 315.826 82.1201 326.926 84.1341 335.73L94.655 341.065Z" fill="#46DC87"/>
<path opacity="0.15" d="M94.655 341.065C94.655 341.065 95.6101 321.891 86.0991 308.362C76.5881 294.832 64.5611 294.555 59.7541 296.48C54.9471 298.405 51.267 304.816 58.7311 310.321C66.1951 315.826 82.1201 326.926 84.1341 335.73L94.655 341.065Z" fill="#12A150"/>
<path d="M91.1611 337.254C90.9281 337.254 90.72 337.09 90.671 336.853C85.368 310.698 69.8811 303.376 63.4691 301.443C63.2051 301.363 63.055 301.085 63.135 300.82C63.214 300.556 63.493 300.407 63.758 300.486C70.3421 302.471 86.2411 309.97 91.6521 336.655C91.7071 336.926 91.5321 337.189 91.2611 337.244C91.2271 337.25 91.1931 337.254 91.1611 337.254Z" fill="white"/>
<path d="M85.734 330.006C83.616 323.678 80.844 320.673 72.027 321.339C63.21 322.005 64.514 321.897 54.093 318.212C43.672 314.527 35.892 318.237 34.742 322.267C33.492 326.647 42.016 329.4 48.246 332.885C54.476 336.369 58.596 340.465 56.518 346.17C54.738 351.058 55.19 355.372 62.746 357.894C69.459 360.135 77.137 356.832 79.372 363.652C80.646 367.54 86.682 372.204 92.902 369.252C104.029 359.915 102.296 347.151 96.494 338.316C93.939 334.428 87.006 333.808 85.734 330.006Z" fill="#6AE5A3"/>
<path d="M91.9201 358.276C91.7141 358.276 91.5211 358.147 91.4481 357.941C84.8901 339.258 53.9971 323.053 42.7121 321.215C42.4401 321.171 42.2541 320.914 42.2991 320.641C42.3431 320.368 42.5981 320.184 42.8731 320.228C54.3321 322.095 85.7141 338.585 92.3921 357.61C92.4841 357.87 92.3471 358.156 92.0861 358.247C92.0311 358.268 91.9751 358.276 91.9201 358.276Z" fill="white"/>
<path d="M64.221 348.121C64.071 348.121 63.923 348.054 63.825 347.926C63.657 347.707 63.697 347.394 63.915 347.225C64.193 347.011 70.845 341.964 80.943 341.716C81.221 341.73 81.448 341.928 81.455 342.204C81.462 342.48 81.244 342.709 80.967 342.716C71.211 342.956 64.591 347.967 64.526 348.017C64.435 348.087 64.328 348.121 64.221 348.121Z" fill="white"/>
<path d="M315.401 87.0938V269.133L130.479 375.898L134.651 384.439L315.401 280.085L323.484 280.835V87.8788L315.401 87.0938Z" fill="#F0F0F0"/>
<path d="M278.241 187.305L279.751 185.198L270.193 179.675L270.127 179.637L270.123 179.643C268.695 178.837 266.817 179.232 265.875 180.683L239.536 221.235L212.245 197.601L213.374 195.91L203.914 190.446L203.906 190.458C202.471 189.585 200.558 189.958 199.592 191.408L130.484 295.148L130.489 369.42L139.968 374.897L310.656 270.871L310.657 218.496L278.241 187.305Z" fill="#F0F0F0"/>
<path d="M139.967 374.895L139.966 300.621L209.074 196.881C210.142 195.278 212.374 194.975 213.83 196.236L249.018 226.71L275.357 186.159C276.451 184.474 278.81 184.203 280.257 185.596L320.14 223.972V267.736C320.14 269.677 319.105 271.47 317.424 272.44L139.967 374.895Z" fill="#FAFAFA"/>
<path d="M249.018 226.71L263.243 239.029L250.796 223.973L249.018 226.71Z" fill="#F0F0F0"/>
<path d="M329.598 84.1288C329.586 84.0238 329.563 83.9067 329.54 83.8137C329.283 82.3777 328.279 80.8487 327.101 80.1597L322.665 77.6037C321.276 76.7987 319.011 76.7987 317.611 77.6037L123.534 189.654C122.834 190.063 122.203 190.751 121.736 191.545C121.281 192.339 121 193.226 121 194.031V385.296C121 386.907 122.132 388.868 123.533 389.673L127.957 392.229C129.171 392.929 131.05 393.023 132.428 392.497C132.486 392.474 132.545 392.45 132.603 392.427C132.731 392.38 132.871 392.31 133.011 392.229L189.167 359.815L327.099 280.18C328.488 279.375 329.62 277.414 329.62 275.803V84.5377C329.622 84.3967 329.61 84.2568 329.598 84.1288ZM323.484 272.443C323.484 274.054 322.352 276.015 320.951 276.82L187.666 353.385L137.751 382.611C136.362 383.416 135.23 382.763 135.23 381.152V202.249C135.23 201.444 135.51 200.556 135.965 199.763C136.42 198.97 137.051 198.269 137.751 197.872L320.95 92.0817C322.351 91.2647 323.483 91.9187 323.483 93.5407V272.443H323.484Z" fill="white"/>
<path d="M133.012 392.23C132.872 392.312 132.732 392.382 132.604 392.428C132.546 392.451 132.487 392.475 132.429 392.498C131.052 393.023 129.172 392.93 127.958 392.23L123.534 389.674C122.133 388.869 121.001 386.908 121.001 385.297V194.031C121.001 193.226 121.281 192.339 121.737 191.545C124.515 193.144 127.725 195 131.215 197.019C132.756 197.906 134.344 198.817 135.966 199.762C135.511 200.556 135.231 201.443 135.231 202.248V381.151C135.231 382.762 136.363 383.415 137.752 382.61L133.012 392.23Z" fill="#F0F0F0"/>
<path d="M329.598 84.1286C329.586 84.0236 329.563 83.9066 329.54 83.8136C329.237 82.7516 328.256 82.4016 327.101 83.0786L133.012 195.14C132.312 195.537 131.681 196.237 131.214 197.019C130.759 197.813 130.479 198.712 130.479 199.517L130.491 390.771C130.491 392.148 131.32 392.825 132.429 392.499C132.487 392.476 132.546 392.452 132.604 392.429C132.732 392.382 132.872 392.312 133.012 392.231L327.1 280.181C328.489 279.376 329.621 277.415 329.621 275.804V84.5376C329.622 84.3966 329.61 84.2566 329.598 84.1286ZM323.484 272.443C323.484 274.054 322.352 276.015 320.951 276.82L137.752 382.61C136.363 383.415 135.231 382.762 135.231 381.151V202.249C135.231 201.444 135.511 200.556 135.966 199.763C136.421 198.97 137.052 198.269 137.752 197.872L320.951 92.0816C322.352 91.2646 323.484 91.9186 323.484 93.5406V272.443Z" fill="#FAFAFA"/>
<path d="M295.735 141.083L300.529 132.945L292.323 128.164C292.323 128.164 292.321 128.163 292.319 128.162L292.313 128.159C289.908 126.775 286.589 126.977 282.922 129.094C275.581 133.332 269.63 143.64 269.63 152.117C269.63 156.297 271.081 159.244 273.428 160.657L273.425 160.663L273.498 160.706C273.515 160.716 273.532 160.726 273.549 160.735L281.449 165.329L286.025 157.563C290.738 153.538 294.466 147.193 295.735 141.083Z" fill="#F0F0F0"/>
<path d="M300.372 154.564C305.563 145.573 305.563 135.855 300.373 132.858C295.182 129.861 286.766 134.72 281.575 143.711C276.384 152.701 276.384 162.419 281.575 165.416C286.765 168.413 295.181 163.554 300.372 154.564Z" fill="#FAFAFA"/>
<path d="M338.401 100.094V282.133L153.479 388.898L157.651 397.439L338.401 293.085L346.484 293.835V100.879L338.401 100.094Z" fill="#EBEBEB"/>
<path d="M301.241 200.305L302.751 198.198L293.193 192.675L293.127 192.637L293.123 192.643C291.695 191.837 289.817 192.232 288.875 193.683L262.536 234.235L235.245 210.601L236.374 208.91L226.914 203.446L226.906 203.458C225.471 202.585 223.558 202.958 222.592 204.408L153.484 308.148L153.489 382.42L162.968 387.897L333.656 283.871L333.657 231.496L301.241 200.305Z" fill="#EBEBEB"/>
<path d="M162.967 387.895L162.966 313.621L232.074 209.881C233.142 208.278 235.374 207.975 236.83 209.236L272.018 239.71L298.357 199.159C299.451 197.474 301.81 197.203 303.257 198.596L343.14 236.972V280.736C343.14 282.677 342.105 284.47 340.424 285.44L162.967 387.895Z" fill="#F5F5F5"/>
<path d="M272.018 239.71L286.243 252.029L273.796 236.973L272.018 239.71Z" fill="#EBEBEB"/>
<path d="M352.598 97.1288C352.586 97.0238 352.563 96.9067 352.54 96.8137C352.283 95.3777 351.279 93.8487 350.101 93.1597L345.665 90.6037C344.276 89.7987 342.011 89.7987 340.611 90.6037L146.535 202.654C145.835 203.063 145.204 203.751 144.737 204.545C144.282 205.339 144.001 206.226 144.001 207.031V398.296C144.001 399.907 145.133 401.868 146.534 402.673L150.958 405.229C152.172 405.929 154.051 406.023 155.429 405.497C155.487 405.474 155.546 405.45 155.604 405.427C155.732 405.38 155.872 405.31 156.012 405.229L212.168 372.815L350.1 293.18C351.489 292.375 352.621 290.414 352.621 288.803V97.5377C352.622 97.3967 352.61 97.2568 352.598 97.1288ZM346.484 285.443C346.484 287.054 345.352 289.015 343.951 289.82L210.666 366.385L160.751 395.611C159.362 396.416 158.23 395.763 158.23 394.152V215.249C158.23 214.444 158.51 213.556 158.965 212.763C159.42 211.969 160.051 211.269 160.751 210.872L343.95 105.082C345.351 104.265 346.483 104.919 346.483 106.541V285.443H346.484Z" fill="#FAFAFA"/>
<path d="M156.012 405.23C155.872 405.312 155.732 405.382 155.604 405.428C155.546 405.451 155.487 405.475 155.429 405.498C154.052 406.023 152.172 405.93 150.958 405.23L146.534 402.674C145.133 401.869 144.001 399.908 144.001 398.297V207.031C144.001 206.226 144.281 205.339 144.737 204.545C147.515 206.144 150.725 208 154.215 210.019C155.756 210.906 157.344 211.817 158.966 212.762C158.511 213.556 158.231 214.443 158.231 215.248V394.151C158.231 395.762 159.363 396.415 160.752 395.61L156.012 405.23Z" fill="#F0F0F0"/>
<path d="M352.598 97.1289C352.586 97.0239 352.563 96.9069 352.54 96.8139C352.237 95.7519 351.256 95.4019 350.101 96.0789L156.012 208.14C155.312 208.537 154.681 209.237 154.214 210.019C153.759 210.813 153.479 211.712 153.479 212.517L153.491 403.771C153.491 405.148 154.32 405.825 155.429 405.499C155.487 405.476 155.546 405.452 155.604 405.429C155.732 405.382 155.872 405.312 156.012 405.231L350.1 293.181C351.489 292.376 352.621 290.415 352.621 288.804V97.5379C352.622 97.3969 352.61 97.2569 352.598 97.1289ZM346.484 285.443C346.484 287.054 345.352 289.015 343.951 289.82L160.752 395.61C159.363 396.415 158.231 395.762 158.231 394.151V215.249C158.231 214.444 158.511 213.556 158.966 212.763C159.421 211.969 160.052 211.269 160.752 210.872L343.951 105.082C345.352 104.265 346.484 104.919 346.484 106.541V285.443Z" fill="#F5F5F5"/>
<path d="M318.735 154.083L323.529 145.946L315.323 141.165C315.323 141.165 315.321 141.164 315.319 141.163L315.313 141.16C312.908 139.776 309.589 139.978 305.922 142.095C298.581 146.333 292.63 156.641 292.63 165.118C292.63 169.298 294.081 172.245 296.428 173.658L296.425 173.664L296.498 173.707C296.515 173.717 296.532 173.727 296.549 173.736L304.449 178.33L309.025 170.564C313.738 166.538 317.466 160.193 318.735 154.083Z" fill="#EBEBEB"/>
<path d="M323.372 167.564C328.563 158.574 328.563 148.856 323.372 145.859C318.182 142.862 309.766 147.721 304.575 156.711C299.384 165.702 299.384 175.42 304.574 178.417C309.765 181.414 318.181 176.555 323.372 167.564Z" fill="#F5F5F5"/>
<path d="M361.401 113.094V295.133L176.479 401.898L180.651 410.439L361.401 306.085L369.484 306.835V113.879L361.401 113.094Z" fill="#E0E0E0"/>
<path d="M324.241 213.305L325.751 211.198L316.193 205.675L316.127 205.637L316.123 205.643C314.695 204.837 312.817 205.232 311.875 206.683L285.536 247.235L258.245 223.601L259.374 221.91L249.914 216.446L249.906 216.458C248.471 215.585 246.558 215.958 245.592 217.408L176.484 321.148L176.489 395.42L185.968 400.897L356.656 296.871L356.657 244.496L324.241 213.305Z" fill="#E6E6E6"/>
<path d="M185.967 400.895L185.966 326.621L255.074 222.881C256.142 221.278 258.374 220.975 259.83 222.236L295.018 252.71L321.357 212.159C322.451 210.474 324.81 210.203 326.257 211.596L366.14 249.972V293.736C366.14 295.677 365.105 297.47 363.424 298.44L185.967 400.895Z" fill="#EBEBEB"/>
<path d="M295.018 252.71L309.243 265.029L296.796 249.973L295.018 252.71Z" fill="#E6E6E6"/>
<path d="M375.598 110.129C375.586 110.024 375.563 109.907 375.54 109.814C375.283 108.378 374.279 106.849 373.101 106.16L368.665 103.604C367.276 102.799 365.011 102.799 363.611 103.604L169.535 215.654C168.835 216.063 168.204 216.751 167.737 217.545C167.282 218.339 167.002 219.226 167.002 220.031V411.296C167.002 412.907 168.134 414.868 169.535 415.673L173.959 418.229C175.173 418.929 177.052 419.023 178.43 418.497C178.488 418.474 178.547 418.45 178.605 418.427C178.733 418.38 178.873 418.31 179.013 418.229L235.169 385.815L373.101 306.18C374.49 305.375 375.622 303.414 375.622 301.803V110.538C375.622 110.397 375.61 110.257 375.598 110.129ZM369.484 298.443C369.484 300.054 368.352 302.015 366.951 302.82L233.666 379.385L183.751 408.611C182.362 409.416 181.23 408.763 181.23 407.152V228.249C181.23 227.444 181.51 226.556 181.965 225.763C182.42 224.969 183.051 224.269 183.751 223.872L366.95 118.082C368.351 117.265 369.483 117.919 369.483 119.541V298.443H369.484Z" fill="#F0F0F0"/>
<path d="M179.012 418.23C178.872 418.312 178.732 418.382 178.604 418.428C178.545 418.451 178.487 418.475 178.429 418.498C177.052 419.023 175.172 418.93 173.958 418.23L169.534 415.674C168.133 414.869 167.001 412.908 167.001 411.297V220.031C167.001 219.226 167.281 218.339 167.736 217.545C170.514 219.144 173.724 221 177.214 223.019C178.755 223.906 180.342 224.817 181.965 225.762C181.51 226.556 181.23 227.443 181.23 228.248V407.151C181.23 408.762 182.362 409.415 183.751 408.61L179.012 418.23Z" fill="#E0E0E0"/>
<path d="M375.598 110.129C375.586 110.024 375.563 109.907 375.54 109.814C375.237 108.752 374.256 108.402 373.101 109.079L179.012 221.14C178.312 221.537 177.681 222.237 177.214 223.019C176.759 223.813 176.479 224.712 176.479 225.517L176.491 416.771C176.491 418.148 177.32 418.825 178.429 418.499C178.487 418.476 178.546 418.452 178.604 418.429C178.732 418.382 178.872 418.312 179.012 418.231L373.1 306.181C374.489 305.376 375.621 303.415 375.621 301.804V110.538C375.622 110.397 375.61 110.257 375.598 110.129ZM369.484 298.443C369.484 300.054 368.352 302.015 366.951 302.82L183.752 408.61C182.363 409.415 181.231 408.762 181.231 407.151V228.249C181.231 227.444 181.511 226.556 181.966 225.763C182.421 224.969 183.052 224.269 183.752 223.872L366.951 118.082C368.352 117.265 369.484 117.919 369.484 119.541V298.443Z" fill="#EBEBEB"/>
<path d="M341.735 167.083L346.529 158.946L338.323 154.165C338.323 154.165 338.321 154.164 338.319 154.163L338.313 154.16V154.161C335.908 152.777 332.589 152.979 328.922 155.096C321.581 159.334 315.63 169.642 315.63 178.119C315.63 182.299 317.081 185.246 319.428 186.659L319.425 186.665L319.498 186.708C319.515 186.718 319.532 186.728 319.549 186.737L327.449 191.331L332.025 183.565C336.738 179.538 340.466 173.193 341.735 167.083Z" fill="#E6E6E6"/>
<path d="M346.372 180.565C351.563 171.574 351.563 161.856 346.372 158.859C341.181 155.862 332.765 160.721 327.574 169.712C322.383 178.703 322.383 188.421 327.574 191.418C332.765 194.415 341.181 189.556 346.372 180.565Z" fill="#EBEBEB"/>
<path d="M385.401 127.094V309.133L200.479 415.898L204.651 424.439L385.401 320.085L393.484 320.835V127.879L385.401 127.094Z" fill="#263238"/>
<path d="M348.241 227.305L349.751 225.198L340.193 219.675L340.127 219.637L340.123 219.643C338.695 218.837 336.817 219.232 335.875 220.683L309.536 261.235L282.245 237.601L283.374 235.91L273.914 230.446L273.906 230.458C272.471 229.585 270.558 229.958 269.592 231.408L200.484 335.148L200.489 409.42L209.968 414.897L380.656 310.871L380.657 258.496L348.241 227.305Z" fill="#12A150"/>
<path opacity="0.15" d="M348.241 227.305L349.751 225.198L340.193 219.675L340.127 219.637L340.123 219.643C338.695 218.837 336.817 219.232 335.875 220.683L309.536 261.235L282.245 237.601L283.374 235.91L273.914 230.446L273.906 230.458C272.471 229.585 270.558 229.958 269.592 231.408L200.484 335.148L200.489 409.42L209.968 414.897L380.656 310.871L380.657 258.496L348.241 227.305Z" fill="#12A150"/>
<path d="M209.967 414.895L209.966 340.621L279.074 236.881C280.142 235.278 282.374 234.975 283.83 236.236L319.018 266.71L345.357 226.159C346.451 224.474 348.81 224.203 350.257 225.596L390.14 263.972V307.736C390.14 309.677 389.105 311.47 387.424 312.44L209.967 414.895Z" fill="#6AE6A3"/>
<path opacity="0.15" d="M319.018 266.71L333.243 279.029L320.796 263.973L319.018 266.71Z" fill="black"/>
<path d="M399.598 124.129C399.586 124.024 399.563 123.907 399.54 123.814C399.283 122.378 398.279 120.849 397.101 120.16L392.665 117.604C391.276 116.799 389.011 116.799 387.611 117.604L193.535 229.654C192.835 230.063 192.204 230.751 191.737 231.545C191.282 232.339 191.002 233.226 191.002 234.031V425.296C191.002 426.907 192.134 428.868 193.535 429.673L197.959 432.229C199.173 432.929 201.052 433.023 202.43 432.497C202.488 432.474 202.547 432.45 202.605 432.427C202.733 432.38 202.873 432.31 203.013 432.229L259.169 399.815L397.101 320.18C398.49 319.375 399.622 317.414 399.622 315.803V124.538C399.622 124.397 399.61 124.257 399.598 124.129ZM393.484 312.443C393.484 314.054 392.352 316.015 390.951 316.82L257.666 393.385L207.751 422.611C206.362 423.416 205.23 422.763 205.23 421.152V242.249C205.23 241.444 205.51 240.556 205.965 239.763C206.42 238.969 207.051 238.269 207.751 237.872L390.95 132.082C392.351 131.265 393.483 131.919 393.483 133.541V312.443H393.484Z" fill="#455A64"/>
<path d="M203.012 432.23C202.872 432.312 202.732 432.382 202.604 432.428C202.545 432.451 202.487 432.475 202.429 432.498C201.052 433.023 199.172 432.93 197.958 432.23L193.534 429.674C192.133 428.869 191.001 426.908 191.001 425.297V234.031C191.001 233.226 191.281 232.339 191.736 231.545C194.514 233.144 197.724 235 201.214 237.019C202.755 237.906 204.342 238.817 205.965 239.762C205.51 240.556 205.23 241.443 205.23 242.248V421.151C205.23 422.762 206.362 423.415 207.751 422.61L203.012 432.23Z" fill="#263238"/>
<path d="M399.598 124.129C399.586 124.024 399.563 123.907 399.54 123.814C399.237 122.752 398.256 122.402 397.101 123.079L203.012 235.14C202.312 235.537 201.681 236.237 201.214 237.019C200.759 237.813 200.479 238.712 200.479 239.517L200.491 430.771C200.491 432.148 201.32 432.825 202.429 432.499C202.487 432.476 202.546 432.452 202.604 432.429C202.732 432.382 202.872 432.312 203.012 432.231L397.1 320.181C398.489 319.376 399.621 317.415 399.621 315.804V124.538C399.622 124.397 399.61 124.257 399.598 124.129ZM393.484 312.443C393.484 314.054 392.352 316.015 390.951 316.82L207.752 422.61C206.363 423.415 205.231 422.762 205.231 421.151V242.249C205.231 241.444 205.511 240.556 205.966 239.763C206.421 238.969 207.052 238.269 207.752 237.872L390.951 132.082C392.352 131.265 393.484 131.919 393.484 133.541V312.443Z" fill="#37474F"/>
<path d="M365.735 181.083L370.529 172.946L362.323 168.165C362.323 168.165 362.321 168.164 362.319 168.163L362.313 168.16V168.161C359.908 166.777 356.589 166.979 352.922 169.096C345.581 173.334 339.63 183.642 339.63 192.119C339.63 196.299 341.081 199.246 343.428 200.659L343.425 200.665L343.498 200.708C343.515 200.718 343.532 200.728 343.549 200.737L351.449 205.331L356.025 197.565C360.738 193.538 364.466 187.193 365.735 181.083Z" fill="#12A150"/>
<path opacity="0.15" d="M365.735 181.083L370.529 172.946L362.323 168.165C362.323 168.165 362.321 168.164 362.319 168.163L362.313 168.16V168.161C359.908 166.777 356.589 166.979 352.922 169.096C345.581 173.334 339.63 183.642 339.63 192.119C339.63 196.299 341.081 199.246 343.428 200.659L343.425 200.665L343.498 200.708C343.515 200.718 343.532 200.728 343.549 200.737L351.449 205.331L356.025 197.565C360.738 193.538 364.466 187.193 365.735 181.083Z" fill="#12A150"/>
<path d="M370.372 194.566C375.563 185.575 375.563 175.857 370.372 172.86C365.181 169.863 356.765 174.722 351.574 183.713C346.383 192.704 346.383 202.421 351.574 205.418C356.765 208.415 365.181 203.557 370.372 194.566Z" fill="#6AE5A3"/>
<path d="M217.733 83.84L195.213 96.8434C195.324 95.8377 195.403 94.8394 195.403 93.8619V87.3357C195.403 75.726 187.251 71.0192 177.197 76.824C173.125 79.1746 169.379 82.9001 166.346 87.2585C164.7 72.6597 153.245 67.2202 139.334 75.2532C124.29 83.9379 112.095 105.059 112.095 122.43V132.191C112.095 136.69 112.928 140.48 114.4 143.499L95.6938 154.299C90.1168 157.519 85.5946 165.351 85.5946 171.79C85.5946 178.23 90.1149 180.841 95.6938 177.622L217.733 107.161C223.31 103.94 227.832 96.1089 227.832 89.6693C227.832 83.2297 223.31 80.6192 217.733 83.84Z" fill="#F5F5F5"/>
</svg>
