<svg width="500" height="500" viewBox="0 0 500 500" fill="none" xmlns="http://www.w3.org/2000/svg">
<g clip-path="url(#clip0_1190_3008)">
<path d="M444.708 349.145H263.962C260.73 349.145 258.1 346.515 258.1 343.283V80.009C258.1 76.777 260.73 74.147 263.962 74.147H444.708C447.94 74.147 450.57 76.776 450.57 80.009V343.282C450.57 346.515 447.94 349.145 444.708 349.145ZM263.962 74.397C260.867 74.397 258.35 76.915 258.35 80.009V343.282C258.35 346.377 260.868 348.894 263.962 348.894H444.708C447.803 348.894 450.32 346.376 450.32 343.282V80.009C450.32 76.915 447.802 74.397 444.708 74.397H263.962Z" fill="#F0F0F0"/>
<path d="M236.28 349.145H55.5341C52.3021 349.145 49.6721 346.515 49.6721 343.283V80.009C49.6721 76.777 52.3011 74.147 55.5341 74.147H236.28C239.512 74.147 242.142 76.776 242.142 80.009V343.282C242.143 346.515 239.513 349.145 236.28 349.145ZM55.5341 74.397C52.4401 74.397 49.9221 76.915 49.9221 80.009V343.282C49.9221 346.377 52.4401 348.894 55.5341 348.894H236.28C239.375 348.894 241.892 346.376 241.892 343.282V80.009C241.892 76.915 239.374 74.397 236.28 74.397H55.5341Z" fill="#F0F0F0"/>
<path d="M500.788 410.214H0.788086V410.464H500.788V410.214Z" fill="#E0E0E0"/>
<path d="M181.218 99.549H212.789C213.617 99.549 214.289 98.877 214.289 98.049V90.922C214.289 90.094 213.617 89.422 212.789 89.422H181.218C180.389 89.422 179.718 90.094 179.718 90.922V98.049C179.718 98.877 180.389 99.549 181.218 99.549Z" fill="#F0F0F0"/>
<path d="M162.361 112.464H193.932C194.76 112.464 195.432 111.792 195.432 110.964V103.837C195.432 103.009 194.76 102.337 193.932 102.337H162.361C161.533 102.337 160.861 103.009 160.861 103.837V110.964C160.861 111.793 161.533 112.464 162.361 112.464Z" fill="#F0F0F0"/>
<path d="M96.967 251.449H65.396C64.568 251.449 63.896 250.777 63.896 249.949V242.822C63.896 241.994 64.568 241.322 65.396 241.322H96.967C97.795 241.322 98.467 241.994 98.467 242.822V249.949C98.467 250.778 97.795 251.449 96.967 251.449Z" fill="#F0F0F0"/>
<path d="M115.824 264.365H84.2529C83.4249 264.365 82.7529 263.693 82.7529 262.865V255.738C82.7529 254.91 83.4249 254.238 84.2529 254.238H115.824C116.652 254.238 117.324 254.91 117.324 255.738V262.865C117.324 263.694 116.652 264.365 115.824 264.365Z" fill="#F0F0F0"/>
<path d="M401.228 261.663H369.657C368.829 261.663 368.157 260.991 368.157 260.163V253.036C368.157 252.207 368.829 251.536 369.657 251.536H401.228C402.056 251.536 402.728 252.207 402.728 253.036V260.163C402.728 260.991 402.057 261.663 401.228 261.663Z" fill="#F0F0F0"/>
<path d="M438.942 261.663H407.371C406.543 261.663 405.871 260.991 405.871 260.163V253.036C405.871 252.207 406.543 251.536 407.371 251.536H438.942C439.771 251.536 440.442 252.207 440.442 253.036V260.163C440.442 260.991 439.771 261.663 438.942 261.663Z" fill="#F0F0F0"/>
<path d="M420.085 274.579H388.514C387.686 274.579 387.014 273.907 387.014 273.079V265.952C387.014 265.124 387.686 264.452 388.514 264.452H420.085C420.913 264.452 421.585 265.124 421.585 265.952V273.079C421.585 273.907 420.914 274.579 420.085 274.579Z" fill="#F0F0F0"/>
<path d="M457.615 324.25H421.547V410.214H457.615V324.25Z" fill="#E6E6E6"/>
<path d="M430.009 324.25H344.045V410.214H430.009V324.25Z" fill="#F5F5F5"/>
<path d="M393.527 324.25H382.906V409.964H393.527V324.25Z" fill="#FAFAFA"/>
<path d="M161.433 324.25H125.365V410.214H161.433V324.25Z" fill="#E6E6E6"/>
<path d="M133.827 324.25H47.863V410.214H133.827V324.25Z" fill="#F5F5F5"/>
<path d="M97.3451 324.25H86.7241V409.964H97.3451V324.25Z" fill="#FAFAFA"/>
<path d="M344.045 369.975H307.977V410.214H344.045V369.975Z" fill="#E6E6E6"/>
<path d="M316.438 369.975H230.474V410.214H316.438V369.975Z" fill="#F5F5F5"/>
<path d="M279.956 369.975H269.335V410.097H279.956V369.975Z" fill="#FAFAFA"/>
<path d="M178.288 284.011H142.22V324.25H178.288V284.011Z" fill="#E6E6E6"/>
<path d="M150.682 284.011H64.718V324.25H150.682V284.011Z" fill="#F5F5F5"/>
<path d="M114.2 284.011H103.579V324.133H114.2V284.011Z" fill="#FAFAFA"/>
<path d="M355.949 93.416H276.928V172.437H355.949V93.416Z" fill="#E6E6E6"/>
<path d="M351.948 168.438V97.4169L280.928 97.4169V168.438H351.948Z" fill="#FAFAFA"/>
<path d="M311.678 152.309C311.678 152.309 324.719 125.572 351.948 125.036V168.438H316.438L311.678 152.309Z" fill="#F0F0F0"/>
<path d="M280.928 144.802C280.928 144.802 292.655 138.654 304.574 143.167C319.541 148.834 328.22 168.438 328.22 168.438H280.928V144.802Z" fill="#F5F5F5"/>
<path d="M305.292 132.461C312.212 132.461 317.822 126.851 317.822 119.931C317.822 113.011 312.212 107.401 305.292 107.401C298.372 107.401 292.762 113.011 292.762 119.931C292.762 126.851 298.372 132.461 305.292 132.461Z" fill="white"/>
<path d="M131.091 93.416H61.7642V227.63H131.091V93.416Z" fill="#E6E6E6"/>
<path d="M127.091 223.631L127.091 97.4167L65.7643 97.4167L65.7643 223.631H127.091Z" fill="#FAFAFA"/>
<path d="M86.9992 149.056C93.9194 149.056 99.5292 143.446 99.5292 136.526C99.5292 129.606 93.9194 123.996 86.9992 123.996C80.0791 123.996 74.4692 129.606 74.4692 136.526C74.4692 143.446 80.0791 149.056 86.9992 149.056Z" fill="white"/>
<path d="M77.2292 223.63C77.2292 223.63 92.7503 149 127.091 142.299V223.63H96.4283H77.2292Z" fill="#F0F0F0"/>
<path d="M65.7642 179.339C65.7642 179.339 73.6652 171.721 86.1822 176.275C109.704 184.833 122.833 223.63 122.833 223.63H65.7642V179.339Z" fill="#F5F5F5"/>
<path d="M406.858 152.003C418.333 150.583 426.484 140.13 425.064 128.655C423.644 117.18 413.191 109.029 401.716 110.449C390.241 111.869 382.09 122.322 383.51 133.797C384.93 145.271 395.383 153.423 406.858 152.003Z" fill="#E0E0E0"/>
<path d="M423.091 135.623C425.518 125.252 419.079 114.878 408.708 112.45C398.337 110.023 387.963 116.462 385.535 126.833C383.108 137.204 389.547 147.578 399.918 150.006C410.289 152.433 420.663 145.994 423.091 135.623Z" fill="#FAFAFA"/>
<path d="M404.352 113.696H403.63V117.718H404.352V113.696Z" fill="#E0E0E0"/>
<path d="M404.352 144.635H403.63V148.657H404.352V144.635Z" fill="#E0E0E0"/>
<path d="M390.532 130.815H386.51V131.537H390.532V130.815Z" fill="#E0E0E0"/>
<path d="M421.471 130.815H417.449V131.537H421.471V130.815Z" fill="#E0E0E0"/>
<path d="M416.102 118.579L413.258 121.423L413.768 121.933L416.612 119.09L416.102 118.579Z" fill="#E0E0E0"/>
<path d="M394.209 140.427L391.366 143.272L391.877 143.782L394.719 140.937L394.209 140.427Z" fill="#E0E0E0"/>
<path d="M391.892 118.582L391.382 119.093L394.226 121.936L394.737 121.426L391.892 118.582Z" fill="#E0E0E0"/>
<path d="M413.769 140.461L413.259 140.971L416.102 143.816L416.613 143.305L413.769 140.461Z" fill="#E0E0E0"/>
<path d="M403.875 130.692L403.648 131.268L410.467 133.953L410.694 133.377L403.875 130.692Z" fill="#E0E0E0"/>
<path d="M404.3 131.486H393.052V130.867H403.681V122.136H404.3V131.486Z" fill="#E0E0E0"/>
<path d="M468.478 454.022C468.478 457.52 371.888 460.356 252.739 460.356C133.59 460.356 37 457.52 37 454.022C37 450.524 133.59 447.688 252.739 447.688C371.888 447.688 468.478 450.524 468.478 454.022Z" fill="#F5F5F5"/>
<path d="M385.328 205.79L404.3 222.806H321.992L305.909 205.79H385.328Z" fill="#28B498"/>
<path opacity="0.5" d="M385.328 205.79L404.3 222.806H321.992L305.909 205.79H385.328Z" fill="black"/>
<path d="M385.365 205.79H305.909V285.246H385.365V205.79Z" fill="#28B498"/>
<path opacity="0.2" d="M385.365 205.79H305.909V285.246H385.365V205.79Z" fill="black"/>
<path d="M359.841 205.79H280.385V285.246H359.841V205.79Z" fill="#28B498"/>
<path d="M280.422 205.79L261.451 222.806H343.758L359.841 205.79H280.422Z" fill="#28B498"/>
<path opacity="0.3" d="M280.422 205.79L261.451 222.806H343.758L359.841 205.79H280.422Z" fill="white"/>
<path d="M321.408 233.166C328.815 233.166 333.845 237.533 333.845 244.718C333.845 252.511 328.318 255.939 320.911 255.939L320.691 260.306H315.218L314.942 251.627H316.766C323.013 251.627 327.822 250.522 327.822 244.718C327.822 240.849 325.445 238.472 321.465 238.472C317.541 238.472 315.054 240.682 315.054 244.552H309.14C309.081 237.865 313.891 233.166 321.408 233.166ZM317.87 272.522C315.603 272.522 313.835 270.753 313.835 268.488C313.835 266.221 315.604 264.453 317.87 264.453C320.081 264.453 321.85 266.222 321.85 268.488C321.851 270.753 320.082 272.522 317.87 272.522Z" fill="white"/>
<path d="M363.285 285.247H269.622V293.479H363.285V285.247Z" fill="#28B498"/>
<path opacity="0.3" d="M363.285 285.247H269.622V293.479H363.285V285.247Z" fill="black"/>
<path d="M398.074 285.247H363.285V293.479H398.074V285.247Z" fill="#28B498"/>
<path opacity="0.5" d="M398.074 285.247H363.285V293.479H398.074V285.247Z" fill="black"/>
<path d="M331.614 293.478H325.969V448.369H331.614V293.478Z" fill="#263238"/>
<path opacity="0.2" d="M331.614 293.478H325.969V448.369H331.614V293.478Z" fill="white"/>
<path opacity="0.2" d="M331.614 297.333L325.969 299.667V293.478H331.614V297.333Z" fill="black"/>
<path d="M356.389 453.381H301.194V453.352C301.194 448.861 304.835 445.221 309.325 445.221H348.257C352.748 445.221 356.388 448.861 356.388 453.352V453.381H356.389Z" fill="#28B498"/>
<path d="M86.947 373.045C86.947 373.045 93.773 370.555 95.54 377.783C97.307 385.011 102.365 383.145 103.322 381.562C105.209 378.441 105.473 367.148 102.228 366.468C98.353 365.654 88.313 369.753 86.947 373.045Z" fill="#28B498"/>
<g opacity="0.4">
<path d="M86.947 373.045C86.947 373.045 93.773 370.555 95.54 377.783C97.307 385.011 102.365 383.145 103.322 381.562C105.209 378.441 105.473 367.148 102.228 366.468C98.353 365.654 88.313 369.753 86.947 373.045Z" fill="black"/>
</g>
<path d="M102.229 366.468C94.2231 366.584 92.1051 373.614 90.8191 379.811L88.2171 374.954L90.0621 383.574C89.8641 384.516 89.6571 385.386 89.4191 386.142C87.4921 392.247 81.5481 394.107 81.5481 394.107C81.5481 394.107 81.1891 391.628 80.8731 388.146V388.143L83.7861 383.561L80.6201 384.891C80.2661 379.429 80.2181 372.861 81.5481 369.117C84.1191 361.889 91.0161 364.113 91.0161 364.113L102.229 366.468Z" fill="#28B498"/>
<path d="M122.168 358.878C122.168 358.878 117.972 357.614 113.575 363.616C109.338 369.399 107.649 370.078 104.777 367.829C101.905 365.58 103.642 352.981 106.886 352.3C110.762 351.487 120.803 355.585 122.168 358.878Z" fill="#28B498"/>
<g opacity="0.4">
<path d="M122.168 358.878C122.168 358.878 117.972 357.614 113.575 363.616C109.338 369.399 107.649 370.078 104.777 367.829C101.905 365.58 103.642 352.981 106.886 352.3C110.762 351.487 120.803 355.585 122.168 358.878Z" fill="black"/>
</g>
<path d="M135.658 391.706C135.658 391.706 130.437 390.073 126.859 385.16L131.487 374.296L125.141 382.208C124.874 381.618 124.633 380.996 124.425 380.338C121.674 371.626 122.237 352.713 106.42 352.484L122.145 348.897C122.145 348.897 131.989 345.721 135.656 356.038C136.591 358.662 137.049 362.261 137.213 366.167L131.486 360.867C131.486 360.867 135.457 366.628 137.283 369.034C137.376 379.835 135.658 391.706 135.658 391.706Z" fill="#28B498"/>
<path d="M82.1541 342.125C82.1541 342.125 88.9801 339.635 90.7471 346.863C92.5141 354.091 101.403 356.85 102.315 353.318C103.288 349.549 101.137 336.123 97.8931 335.442C94.0171 334.629 83.5191 338.832 82.1541 342.125Z" fill="#28B498"/>
<g opacity="0.4">
<path d="M82.1541 342.125C82.1541 342.125 88.9801 339.635 90.7471 346.863C92.5141 354.091 101.403 356.85 102.315 353.318C103.288 349.549 101.137 336.123 97.8931 335.442C94.0171 334.629 83.5191 338.832 82.1541 342.125Z" fill="black"/>
</g>
<path d="M98.1791 335.501C85.2481 335.689 83.0801 348.511 81.2151 357.946L74.6261 348.441C74.7101 348.716 78.2041 360.056 79.5551 364.552C76.5091 372.493 68.6621 374.953 68.6621 374.953C68.6621 374.953 66.4651 359.777 67.1711 348.128C69.0981 346.533 72.5051 343.676 72.5051 343.676L67.4551 344.926C67.7101 342.789 68.1011 340.861 68.6621 339.283C72.3291 328.969 82.1761 332.144 82.1761 332.144L98.1791 335.501Z" fill="#28B498"/>
<path d="M103.323 398.651C103.306 398.651 103.29 398.65 103.272 398.648C103.025 398.62 102.846 398.397 102.874 398.15C107.352 358.301 96.1331 324.701 96.0191 324.367C95.9381 324.131 96.0651 323.875 96.3001 323.795C96.5381 323.717 96.7931 323.842 96.8721 324.077C96.9871 324.414 108.269 358.205 103.77 398.251C103.744 398.481 103.549 398.651 103.323 398.651Z" fill="#28B498"/>
<path d="M120.714 395.75H86.105V400.596H120.714V395.75Z" fill="#263238"/>
<path opacity="0.2" d="M120.714 395.75H86.105V400.596H120.714V395.75Z" fill="white"/>
<path d="M115.132 400.596H91.5131C88.6761 407.184 79.5061 426.598 79.5061 432.334C79.5061 439.119 87.9681 453.261 87.9681 453.261C87.9681 454.276 118.676 454.276 118.676 453.261C118.676 453.261 127.138 439.119 127.138 432.334C127.138 426.598 117.968 407.184 115.132 400.596Z" fill="#263238"/>
<path d="M194.409 329.761C194.409 329.761 204.489 326.084 207.098 336.757C209.708 347.43 217.177 344.675 218.59 342.337C221.376 337.729 221.766 321.053 216.974 320.048C211.252 318.846 196.426 324.899 194.409 329.761Z" fill="#28B498"/>
<g opacity="0.4">
<path d="M194.409 329.761C194.409 329.761 204.489 326.084 207.098 336.757C209.708 347.43 217.177 344.675 218.59 342.337C221.376 337.729 221.766 321.053 216.974 320.048C211.252 318.846 196.426 324.899 194.409 329.761Z" fill="black"/>
</g>
<path d="M216.976 320.048C205.154 320.22 202.026 330.601 200.127 339.752L196.285 332.579L199.009 345.308C198.717 346.699 198.411 347.984 198.06 349.101C195.214 358.116 186.437 360.862 186.437 360.862C186.437 360.862 185.907 357.202 185.44 352.06V352.055L189.742 345.289L185.067 347.253C184.544 339.188 184.473 329.489 186.437 323.96C190.233 313.287 200.418 316.571 200.418 316.571L216.976 320.048Z" fill="#28B498"/>
<path d="M246.419 308.84C246.419 308.84 240.223 306.974 233.73 315.837C227.474 324.376 224.98 325.379 220.739 322.058C216.498 318.737 219.063 300.132 223.853 299.127C229.576 297.926 244.404 303.978 246.419 308.84Z" fill="#28B498"/>
<g opacity="0.4">
<path d="M246.419 308.84C246.419 308.84 240.223 306.974 233.73 315.837C227.474 324.376 224.98 325.379 220.739 322.058C216.498 318.737 219.063 300.132 223.853 299.127C229.576 297.926 244.404 303.978 246.419 308.84Z" fill="black"/>
</g>
<path d="M266.34 357.317C266.34 357.317 258.63 354.905 253.347 347.65L260.181 331.608L250.81 343.291C250.415 342.42 250.059 341.501 249.752 340.53C245.69 327.665 246.521 299.737 223.165 299.399L246.386 294.102C246.386 294.102 260.922 289.412 266.337 304.647C267.718 308.521 268.394 313.836 268.636 319.604L260.179 311.777C260.179 311.777 266.043 320.285 268.739 323.837C268.877 339.787 266.34 357.317 266.34 357.317Z" fill="#28B498"/>
<path d="M187.332 284.102C187.332 284.102 197.411 280.425 200.021 291.098C202.63 301.772 215.756 305.846 217.103 300.63C218.54 295.064 215.363 275.239 210.573 274.233C204.849 273.032 189.347 279.239 187.332 284.102Z" fill="#28B498"/>
<g opacity="0.4">
<path d="M187.332 284.102C187.332 284.102 197.411 280.425 200.021 291.098C202.63 301.772 215.756 305.846 217.103 300.63C218.54 295.064 215.363 275.239 210.573 274.233C204.849 273.032 189.347 279.239 187.332 284.102Z" fill="black"/>
</g>
<path d="M210.995 274.32C191.9 274.598 188.699 293.532 185.945 307.464L176.215 293.428C176.339 293.834 181.499 310.58 183.494 317.219C178.996 328.945 167.408 332.578 167.408 332.578C167.408 332.578 164.164 310.168 165.206 292.966C168.052 290.611 173.083 286.392 173.083 286.392L165.626 288.238C166.002 285.082 166.58 282.235 167.408 279.905C172.823 264.674 187.364 269.363 187.364 269.363L210.995 274.32Z" fill="#28B498"/>
<path d="M218.591 367.572C218.566 367.572 218.543 367.571 218.516 367.568C218.151 367.526 217.887 367.197 217.928 366.832C224.541 307.988 207.974 258.372 207.806 257.879C207.686 257.53 207.874 257.152 208.221 257.034C208.572 256.919 208.949 257.104 209.065 257.451C209.235 257.948 225.895 307.847 219.251 366.982C219.213 367.321 218.925 367.572 218.591 367.572Z" fill="#28B498"/>
<path d="M244.272 363.288H193.166V370.444H244.272V363.288Z" fill="#263238"/>
<path opacity="0.2" d="M244.272 363.288H193.166V370.444H244.272V363.288Z" fill="white"/>
<path d="M236.029 370.444H201.152C196.963 380.173 183.421 408.841 183.421 417.311C183.421 427.33 195.917 448.214 195.917 448.214C195.917 449.712 241.263 449.712 241.263 448.214C241.263 448.214 253.758 427.33 253.758 417.311C253.758 408.841 240.217 380.173 236.029 370.444Z" fill="#263238"/>
<path d="M152.146 130.29C163.769 130.29 173.192 120.867 173.192 109.244C173.192 97.6206 163.769 88.198 152.146 88.198C140.523 88.198 131.1 97.6206 131.1 109.244C131.1 120.867 140.523 130.29 152.146 130.29Z" fill="#28B498"/>
<g opacity="0.7">
<path d="M152.146 130.29C163.769 130.29 173.192 120.867 173.192 109.244C173.192 97.6206 163.769 88.198 152.146 88.198C140.523 88.198 131.1 97.6206 131.1 109.244C131.1 120.867 140.523 130.29 152.146 130.29Z" fill="white"/>
</g>
<path d="M152.146 130.723C140.302 130.723 130.667 121.088 130.667 109.244C130.667 97.4 140.302 87.765 152.146 87.765C163.99 87.765 173.625 97.4 173.625 109.244C173.625 121.088 163.99 130.723 152.146 130.723ZM152.146 88.631C140.78 88.631 131.533 97.878 131.533 109.244C131.533 120.61 140.78 129.857 152.146 129.857C163.512 129.857 172.759 120.61 172.759 109.244C172.759 97.878 163.512 88.631 152.146 88.631Z" fill="#28B498"/>
<path d="M152.316 97.546C156.874 97.546 159.97 100.234 159.97 104.656C159.97 109.452 156.569 111.562 152.01 111.562L151.874 114.25H148.506L148.336 108.909H149.458C153.302 108.909 156.262 108.229 156.262 104.657C156.262 102.276 154.799 100.813 152.35 100.813C149.935 100.813 148.404 102.173 148.404 104.555H144.764C144.73 100.437 147.69 97.546 152.316 97.546ZM150.139 121.766C148.744 121.766 147.655 120.677 147.655 119.283C147.655 117.888 148.744 116.799 150.139 116.799C151.5 116.799 152.589 117.888 152.589 119.283C152.589 120.678 151.5 121.766 150.139 121.766Z" fill="#28B498"/>
<path d="M165.314 125.662L172.177 129.074C172.537 129.253 172.929 128.896 172.784 128.521L169.781 120.734C168.253 122.905 166.76 124.603 165.314 125.662Z" fill="#28B498"/>
</g>
<defs>
<clipPath id="clip0_1190_3008">
<rect width="500" height="500" fill="white"/>
</clipPath>
</defs>
</svg>
