<svg width="600" height="438" viewBox="0 0 600 438" fill="none" xmlns="http://www.w3.org/2000/svg">
<rect width="600" height="437.811" fill="#0D232B"/>
<g opacity="0.1">
<path d="M415.39 334.399C402.719 340.439 382.175 340.439 369.504 334.399C356.832 328.361 356.832 318.568 369.504 312.529C382.175 306.49 402.719 306.49 415.39 312.529C428.061 318.568 428.061 328.361 415.39 334.399Z" fill="#FAFAFA"/>
<path d="M184.472 280.103C184.472 280.103 185.103 267.448 178.825 258.519C172.548 249.589 164.61 249.406 161.438 250.677C158.265 251.947 155.836 256.179 160.762 259.812C165.689 263.445 176.199 270.771 177.528 276.582L184.472 280.103Z" fill="#46DC87"/>
<path opacity="0.15" d="M184.472 280.103C184.472 280.103 185.103 267.448 178.825 258.519C172.548 249.589 164.61 249.406 161.438 250.677C158.265 251.947 155.836 256.179 160.762 259.812C165.689 263.445 176.199 270.771 177.528 276.582L184.472 280.103Z" fill="#12A150"/>
<path d="M182.166 277.588C182.012 277.588 181.875 277.479 181.843 277.323C178.343 260.061 168.121 255.228 163.89 253.952C163.715 253.9 163.616 253.716 163.669 253.541C163.721 253.367 163.905 253.269 164.08 253.321C168.426 254.631 178.919 259.58 182.49 277.192C182.527 277.371 182.411 277.545 182.232 277.581C182.21 277.585 182.187 277.588 182.166 277.588Z" fill="white"/>
<path d="M178.584 272.804C177.187 268.627 175.357 266.644 169.538 267.084C163.719 267.523 164.579 267.452 157.701 265.02C150.824 262.588 145.689 265.036 144.93 267.696C144.105 270.587 149.731 272.404 153.842 274.704C157.954 277.004 160.673 279.707 159.302 283.472C158.127 286.698 158.425 289.546 163.412 291.21C167.843 292.689 172.91 290.509 174.386 295.01C175.226 297.576 179.21 300.655 183.315 298.706C190.659 292.544 189.515 284.12 185.686 278.289C184 275.722 179.424 275.313 178.584 272.804Z" fill="#6AE5A3"/>
<path d="M182.667 291.462C182.531 291.462 182.404 291.377 182.356 291.241C178.027 278.91 157.638 268.215 150.19 267.002C150.01 266.973 149.888 266.803 149.917 266.623C149.946 266.443 150.115 266.321 150.296 266.35C157.859 267.583 178.571 278.466 182.979 291.023C183.039 291.194 182.949 291.383 182.777 291.443C182.74 291.457 182.703 291.462 182.667 291.462Z" fill="white"/>
<path d="M164.386 284.76C164.287 284.76 164.189 284.716 164.125 284.631C164.014 284.487 164.04 284.28 164.184 284.169C164.367 284.027 168.758 280.696 175.422 280.533C175.606 280.542 175.756 280.673 175.76 280.855C175.765 281.037 175.621 281.188 175.438 281.193C168.999 281.351 164.63 284.658 164.587 284.691C164.527 284.738 164.456 284.76 164.386 284.76Z" fill="white"/>
<path d="M330.165 112.482V232.628L208.116 303.093L210.87 308.73L330.165 239.856L335.499 240.351V113L330.165 112.482Z" fill="#F0F0F0"/>
<path d="M305.639 178.621L306.636 177.231L300.327 173.585L300.284 173.56L300.281 173.564C299.339 173.032 298.099 173.293 297.478 174.251L280.094 201.015L262.082 185.416L262.827 184.3L256.583 180.694L256.578 180.702C255.631 180.126 254.368 180.372 253.731 181.329L208.119 249.798L208.123 298.817L214.379 302.432L327.033 233.775L327.034 199.207L305.639 178.621Z" fill="#F0F0F0"/>
<path d="M214.378 302.431L214.378 253.41L259.989 184.941C260.694 183.883 262.167 183.683 263.128 184.516L286.352 204.629L303.736 177.865C304.458 176.753 306.015 176.574 306.97 177.493L333.292 202.821V231.706C333.292 232.987 332.609 234.17 331.5 234.81L214.378 302.431Z" fill="#FAFAFA"/>
<path d="M286.352 204.628L295.74 212.759L287.525 202.822L286.352 204.628Z" fill="#F0F0F0"/>
<path d="M339.535 110.525C339.527 110.456 339.512 110.379 339.496 110.317C339.327 109.369 338.664 108.36 337.887 107.906L334.959 106.219C334.042 105.687 332.547 105.687 331.623 106.219L203.532 180.172C203.07 180.441 202.654 180.896 202.346 181.42C202.045 181.944 201.86 182.529 201.86 183.06V309.295C201.86 310.359 202.607 311.653 203.532 312.184L206.452 313.871C207.253 314.333 208.493 314.395 209.402 314.048C209.441 314.033 209.48 314.017 209.518 314.002C209.602 313.971 209.695 313.924 209.787 313.871L246.85 292.478L337.885 239.919C338.802 239.387 339.549 238.093 339.549 237.03V110.795C339.551 110.702 339.543 110.61 339.535 110.525ZM335.499 234.812C335.499 235.876 334.752 237.17 333.828 237.701L245.86 288.234L212.916 307.523C211.999 308.054 211.252 307.623 211.252 306.56V188.484C211.252 187.953 211.437 187.367 211.737 186.843C212.037 186.32 212.454 185.857 212.916 185.595L333.827 115.774C334.752 115.235 335.499 115.666 335.499 116.737V234.812H335.499Z" fill="#1C4C5D"/>
<path d="M209.788 313.872C209.696 313.926 209.603 313.972 209.519 314.002C209.48 314.017 209.441 314.033 209.403 314.048C208.494 314.395 207.254 314.334 206.452 313.872L203.532 312.185C202.608 311.653 201.861 310.359 201.861 309.296V183.06C201.861 182.529 202.045 181.943 202.346 181.419C204.18 182.475 206.298 183.7 208.602 185.032C209.619 185.618 210.667 186.219 211.738 186.843C211.437 187.367 211.252 187.952 211.252 188.483V306.559C211.252 307.623 212 308.054 212.916 307.522L209.788 313.872Z" fill="#F0F0F0"/>
<path d="M339.535 110.525C339.527 110.456 339.512 110.378 339.496 110.317C339.296 109.616 338.649 109.385 337.887 109.832L209.788 183.792C209.326 184.054 208.909 184.516 208.601 185.032C208.301 185.556 208.116 186.15 208.116 186.681L208.124 312.909C208.124 313.818 208.671 314.264 209.403 314.049C209.441 314.034 209.48 314.018 209.519 314.003C209.603 313.972 209.696 313.926 209.788 313.872L337.886 239.919C338.803 239.388 339.55 238.094 339.55 237.031V110.795C339.551 110.702 339.543 110.609 339.535 110.525ZM335.499 234.812C335.499 235.876 334.752 237.17 333.828 237.701L212.916 307.522C212 308.054 211.252 307.623 211.252 306.56V188.484C211.252 187.953 211.437 187.367 211.738 186.843C212.038 186.32 212.454 185.857 212.916 185.595L333.828 115.774C334.752 115.235 335.499 115.666 335.499 116.737V234.812Z" fill="#FAFAFA"/>
<path d="M317.185 148.115L320.349 142.744L314.933 139.588C314.933 139.588 314.932 139.587 314.931 139.587L314.927 139.585C313.339 138.671 311.149 138.805 308.729 140.202C303.883 142.999 299.956 149.802 299.956 155.397C299.956 158.156 300.913 160.101 302.462 161.034L302.461 161.037L302.509 161.066C302.52 161.072 302.531 161.079 302.542 161.085L307.756 164.117L310.777 158.991C313.887 156.335 316.348 152.147 317.185 148.115Z" fill="#F0F0F0"/>
<path d="M320.246 157.012C323.672 151.078 323.672 144.664 320.246 142.686C316.82 140.708 311.265 143.915 307.839 149.849C304.413 155.783 304.413 162.197 307.839 164.175C311.265 166.153 316.82 162.946 320.246 157.012Z" fill="#FAFAFA"/>
<path d="M345.345 121.062V241.208L223.296 311.672L226.05 317.309L345.345 248.436L350.679 248.931V121.58L345.345 121.062Z" fill="#EBEBEB"/>
<path d="M320.819 187.201L321.816 185.811L315.507 182.165L315.464 182.14L315.461 182.144C314.519 181.612 313.279 181.873 312.658 182.831L295.274 209.595L277.262 193.997L278.007 192.881L271.763 189.274L271.758 189.282C270.811 188.706 269.548 188.952 268.911 189.909L223.299 258.378L223.303 307.397L229.559 311.012L342.213 242.355L342.214 207.787L320.819 187.201Z" fill="#EBEBEB"/>
<path d="M229.558 311.01L229.558 261.99L275.169 193.521C275.874 192.463 277.347 192.263 278.308 193.095L301.532 213.208L318.916 186.445C319.638 185.333 321.195 185.154 322.15 186.073L348.472 211.401V240.286C348.472 241.567 347.789 242.75 346.68 243.39L229.558 311.01Z" fill="#F5F5F5"/>
<path d="M301.532 213.208L310.92 221.339L302.705 211.402L301.532 213.208Z" fill="#EBEBEB"/>
<path d="M354.715 119.105C354.707 119.036 354.692 118.958 354.676 118.897C354.507 117.949 353.844 116.94 353.067 116.485L350.139 114.798C349.222 114.267 347.727 114.267 346.803 114.798L218.713 188.751C218.251 189.021 217.835 189.475 217.526 189.999C217.226 190.523 217.041 191.109 217.041 191.64V317.875C217.041 318.938 217.788 320.233 218.712 320.764L221.632 322.451C222.434 322.913 223.674 322.975 224.583 322.628C224.621 322.613 224.66 322.597 224.699 322.582C224.783 322.551 224.876 322.504 224.968 322.451L262.031 301.058L353.066 248.499C353.983 247.967 354.73 246.673 354.73 245.61V119.375C354.73 119.282 354.723 119.189 354.715 119.105ZM350.679 243.392C350.679 244.455 349.932 245.75 349.008 246.281L261.04 296.814L228.096 316.103C227.179 316.634 226.432 316.203 226.432 315.14V197.064C226.432 196.533 226.617 195.947 226.917 195.423C227.217 194.899 227.634 194.437 228.096 194.175L349.007 124.354C349.932 123.815 350.679 124.246 350.679 125.317V243.392H350.679Z" fill="#1C4C5D"/>
<path d="M224.968 322.452C224.876 322.506 224.783 322.552 224.699 322.582C224.66 322.597 224.621 322.613 224.583 322.628C223.674 322.975 222.434 322.914 221.632 322.452L218.712 320.765C217.788 320.233 217.041 318.939 217.041 317.876V191.64C217.041 191.109 217.225 190.524 217.526 190C219.36 191.055 221.478 192.28 223.782 193.612C224.799 194.198 225.847 194.799 226.918 195.423C226.617 195.947 226.432 196.532 226.432 197.063V315.139C226.432 316.203 227.18 316.634 228.096 316.102L224.968 322.452Z" fill="#F0F0F0"/>
<path d="M354.715 119.105C354.707 119.036 354.692 118.959 354.676 118.897C354.476 118.196 353.829 117.965 353.067 118.412L224.968 192.372C224.506 192.634 224.089 193.096 223.781 193.612C223.481 194.137 223.296 194.73 223.296 195.261L223.304 321.489C223.304 322.398 223.851 322.844 224.583 322.629C224.621 322.614 224.66 322.598 224.699 322.583C224.783 322.552 224.876 322.506 224.968 322.452L353.066 248.499C353.983 247.968 354.73 246.674 354.73 245.611V119.375C354.731 119.282 354.723 119.19 354.715 119.105ZM350.679 243.392C350.679 244.456 349.932 245.75 349.008 246.281L228.096 316.103C227.18 316.634 226.432 316.203 226.432 315.14V197.064C226.432 196.533 226.617 195.947 226.918 195.424C227.218 194.899 227.634 194.437 228.096 194.175L349.008 124.354C349.932 123.815 350.679 124.246 350.679 125.317V243.392Z" fill="#F5F5F5"/>
<path d="M332.365 156.695L335.529 151.324L330.113 148.169C330.113 148.169 330.112 148.168 330.111 148.167L330.107 148.165C328.519 147.252 326.329 147.385 323.909 148.782C319.063 151.58 315.136 158.383 315.136 163.978C315.136 166.736 316.093 168.681 317.642 169.614L317.641 169.618L317.689 169.646C317.7 169.653 317.711 169.66 317.722 169.666L322.936 172.698L325.957 167.572C329.067 164.915 331.528 160.727 332.365 156.695Z" fill="#EBEBEB"/>
<path d="M335.426 165.592C338.852 159.659 338.852 153.245 335.426 151.267C332 149.289 326.445 152.496 323.019 158.429C319.593 164.363 319.593 170.777 323.019 172.755C326.445 174.733 332 171.526 335.426 165.592Z" fill="#F5F5F5"/>
<path d="M360.525 129.642V249.788L238.476 320.253L241.23 325.89L360.525 257.016L365.859 257.511V130.16L360.525 129.642Z" fill="#E0E0E0"/>
<path d="M335.999 195.781L336.996 194.39L330.687 190.745L330.644 190.72L330.641 190.724C329.699 190.192 328.459 190.453 327.838 191.411L310.454 218.175L292.442 202.576L293.187 201.46L286.943 197.854L286.938 197.862C285.991 197.286 284.728 197.532 284.091 198.489L238.479 266.957L238.483 315.977L244.739 319.592L357.393 250.935L357.394 216.367L335.999 195.781Z" fill="#E6E6E6"/>
<path d="M244.738 319.591L244.738 270.57L290.349 202.101C291.054 201.043 292.527 200.843 293.488 201.676L316.712 221.788L334.096 195.025C334.818 193.913 336.375 193.734 337.33 194.653L363.652 219.981V248.866C363.652 250.147 362.969 251.33 361.86 251.97L244.738 319.591Z" fill="#EBEBEB"/>
<path d="M316.712 221.788L326.1 229.919L317.885 219.982L316.712 221.788Z" fill="#E6E6E6"/>
<path d="M369.895 127.685C369.887 127.616 369.872 127.538 369.856 127.477C369.687 126.529 369.024 125.52 368.247 125.065L365.319 123.378C364.402 122.847 362.907 122.847 361.983 123.378L233.893 197.331C233.431 197.601 233.015 198.055 232.707 198.58C232.406 199.104 232.221 199.689 232.221 200.22V326.455C232.221 327.518 232.969 328.813 233.893 329.344L236.813 331.031C237.614 331.493 238.854 331.555 239.764 331.208C239.802 331.193 239.841 331.177 239.879 331.162C239.964 331.131 240.056 331.084 240.149 331.031L277.212 309.638L368.247 257.079C369.163 256.547 369.911 255.253 369.911 254.19V127.955C369.911 127.862 369.903 127.769 369.895 127.685ZM365.86 251.972C365.86 253.035 365.112 254.33 364.188 254.861L276.22 305.394L243.276 324.683C242.359 325.214 241.612 324.783 241.612 323.72V205.644C241.612 205.113 241.797 204.527 242.097 204.003C242.397 203.479 242.814 203.017 243.276 202.755L364.187 132.934C365.112 132.395 365.859 132.826 365.859 133.897V251.972H365.86Z" fill="#1C4C5D"/>
<path d="M240.148 331.032C240.056 331.086 239.963 331.132 239.879 331.162C239.84 331.178 239.801 331.193 239.763 331.209C238.854 331.555 237.614 331.494 236.812 331.032L233.892 329.345C232.968 328.813 232.221 327.519 232.221 326.456V200.22C232.221 199.689 232.405 199.104 232.706 198.58C234.539 199.635 236.658 200.86 238.961 202.192C239.978 202.778 241.026 203.379 242.097 204.003C241.797 204.527 241.612 205.112 241.612 205.644V323.72C241.612 324.783 242.359 325.214 243.276 324.682L240.148 331.032Z" fill="#E0E0E0"/>
<path d="M369.895 127.685C369.887 127.616 369.872 127.539 369.856 127.477C369.656 126.776 369.009 126.545 368.247 126.992L240.148 200.952C239.686 201.214 239.269 201.676 238.961 202.193C238.661 202.717 238.476 203.31 238.476 203.841L238.484 330.069C238.484 330.978 239.031 331.425 239.763 331.209C239.801 331.194 239.84 331.178 239.879 331.163C239.963 331.132 240.056 331.086 240.148 331.032L368.246 257.079C369.163 256.548 369.91 255.254 369.91 254.191V127.955C369.91 127.862 369.903 127.77 369.895 127.685ZM365.859 251.972C365.859 253.036 365.112 254.33 364.188 254.861L243.276 324.683C242.36 325.214 241.612 324.783 241.612 323.72V205.644C241.612 205.113 241.797 204.527 242.098 204.004C242.398 203.48 242.814 203.018 243.276 202.756L364.188 132.934C365.112 132.395 365.859 132.827 365.859 133.897V251.972Z" fill="#EBEBEB"/>
<path d="M347.545 165.274L350.709 159.904L345.293 156.749C345.293 156.749 345.292 156.748 345.291 156.747L345.287 156.745V156.746C343.699 155.833 341.509 155.966 339.089 157.363C334.243 160.16 330.316 166.963 330.316 172.558C330.316 175.317 331.273 177.262 332.822 178.195L332.821 178.199L332.869 178.227C332.88 178.234 332.891 178.24 332.902 178.246L338.116 181.278L341.137 176.153C344.247 173.495 346.708 169.307 347.545 165.274Z" fill="#E6E6E6"/>
<path d="M350.605 174.173C354.031 168.239 354.031 161.825 350.606 159.847C347.18 157.869 341.625 161.076 338.199 167.01C334.773 172.944 334.773 179.358 338.199 181.336C341.625 183.314 347.179 180.107 350.605 174.173Z" fill="#EBEBEB"/>
<path d="M376.365 138.882V259.028L254.316 329.492L257.07 335.13L376.365 266.256L381.699 266.751V139.4L376.365 138.882Z" fill="#263238"/>
<path d="M351.839 205.021L352.836 203.631L346.527 199.985L346.484 199.96L346.481 199.964C345.539 199.432 344.299 199.693 343.677 200.651L326.294 227.415L308.282 211.817L309.027 210.701L302.783 207.094L302.778 207.102C301.831 206.526 300.568 206.772 299.931 207.729L254.319 276.198L254.323 325.217L260.579 328.832L373.233 260.175L373.234 225.607L351.839 205.021Z" fill="#12A150"/>
<path opacity="0.15" d="M351.839 205.021L352.836 203.631L346.527 199.985L346.484 199.96L346.481 199.964C345.539 199.432 344.299 199.693 343.677 200.651L326.294 227.415L308.282 211.817L309.027 210.701L302.783 207.094L302.778 207.102C301.831 206.526 300.568 206.772 299.931 207.729L254.319 276.198L254.323 325.217L260.579 328.832L373.233 260.175L373.234 225.607L351.839 205.021Z" fill="#12A150"/>
<path d="M260.578 328.831L260.578 279.81L306.189 211.341C306.894 210.283 308.367 210.083 309.328 210.916L332.552 231.028L349.936 204.265C350.658 203.153 352.215 202.974 353.17 203.893L379.492 229.221V258.106C379.492 259.387 378.809 260.57 377.7 261.21L260.578 328.831Z" fill="#058873"/>
<path opacity="0.15" d="M332.552 231.028L341.94 239.159L333.725 229.222L332.552 231.028Z" fill="black"/>
<path d="M385.735 136.925C385.727 136.856 385.712 136.778 385.696 136.717C385.527 135.769 384.864 134.76 384.087 134.305L381.159 132.618C380.242 132.087 378.747 132.087 377.823 132.618L249.733 206.571C249.271 206.841 248.855 207.295 248.546 207.82C248.246 208.344 248.061 208.929 248.061 209.46V335.695C248.061 336.758 248.808 338.053 249.733 338.584L252.653 340.271C253.454 340.733 254.694 340.795 255.604 340.448C255.642 340.433 255.681 340.417 255.719 340.402C255.804 340.371 255.896 340.324 255.989 340.271L293.052 318.878L384.087 266.319C385.003 265.787 385.751 264.493 385.751 263.43V137.195C385.751 137.102 385.743 137.009 385.735 136.925ZM381.699 261.212C381.699 262.275 380.952 263.57 380.028 264.101L292.06 314.634L259.116 333.923C258.199 334.454 257.452 334.023 257.452 332.96V214.884C257.452 214.353 257.637 213.767 257.937 213.243C258.237 212.719 258.654 212.257 259.116 211.995L380.027 142.174C380.952 141.635 381.699 142.066 381.699 143.137V261.212H381.699Z" fill="#455A64"/>
<path d="M255.988 340.272C255.895 340.326 255.803 340.372 255.719 340.402C255.68 340.418 255.641 340.433 255.603 340.449C254.694 340.795 253.453 340.734 252.652 340.272L249.732 338.585C248.808 338.053 248.061 336.759 248.061 335.696V209.46C248.061 208.929 248.245 208.344 248.546 207.82C250.379 208.875 252.498 210.1 254.801 211.432C255.818 212.018 256.866 212.619 257.937 213.243C257.637 213.767 257.452 214.352 257.452 214.884V332.96C257.452 334.023 258.199 334.454 259.116 333.922L255.988 340.272Z" fill="#263238"/>
<path d="M385.735 136.925C385.727 136.856 385.712 136.779 385.696 136.717C385.496 136.016 384.849 135.785 384.087 136.232L255.988 210.192C255.526 210.454 255.109 210.916 254.801 211.433C254.501 211.957 254.316 212.55 254.316 213.081L254.324 339.309C254.324 340.218 254.871 340.665 255.603 340.449C255.641 340.434 255.68 340.418 255.719 340.403C255.803 340.372 255.896 340.326 255.988 340.272L384.086 266.319C385.003 265.788 385.75 264.494 385.75 263.431V137.195C385.75 137.102 385.743 137.01 385.735 136.925ZM381.699 261.212C381.699 262.276 380.952 263.57 380.028 264.101L259.116 333.923C258.2 334.454 257.452 334.023 257.452 332.96V214.884C257.452 214.353 257.637 213.767 257.938 213.244C258.238 212.72 258.654 212.258 259.116 211.996L380.028 142.174C380.952 141.635 381.699 142.067 381.699 143.137V261.212Z" fill="#37474F"/>
<path d="M363.385 174.514L366.549 169.144L361.133 165.989C361.133 165.989 361.132 165.988 361.131 165.987L361.127 165.985V165.986C359.539 165.073 357.349 165.206 354.928 166.603C350.083 169.4 346.156 176.203 346.156 181.798C346.156 184.557 347.113 186.502 348.662 187.435L348.66 187.439L348.709 187.467C348.72 187.474 348.731 187.48 348.742 187.486L353.956 190.518L356.976 185.393C360.087 182.735 362.548 178.547 363.385 174.514Z" fill="#12A150"/>
<path opacity="0.15" d="M363.385 174.514L366.549 169.144L361.133 165.989C361.133 165.989 361.132 165.988 361.131 165.987L361.127 165.985V165.986C359.539 165.073 357.349 165.206 354.928 166.603C350.083 169.4 346.156 176.203 346.156 181.798C346.156 184.557 347.113 186.502 348.662 187.435L348.66 187.439L348.709 187.467C348.72 187.474 348.731 187.48 348.742 187.486L353.956 190.518L356.976 185.393C360.087 182.735 362.548 178.547 363.385 174.514Z" fill="#12A150"/>
<path d="M366.445 183.413C369.871 177.48 369.871 171.066 366.445 169.088C363.02 167.11 357.465 170.317 354.039 176.25C350.613 182.184 350.613 188.598 354.039 190.576C357.465 192.554 363.019 189.347 366.445 183.413Z" fill="#058873"/>
<path d="M265.704 110.334L250.84 118.917C250.914 118.253 250.966 117.594 250.966 116.949V112.642C250.966 104.979 245.586 101.873 238.95 105.704C236.263 107.255 233.79 109.714 231.789 112.591C230.702 102.955 223.142 99.3654 213.96 104.667C204.032 110.399 195.983 124.339 195.983 135.804V142.246C195.983 145.216 196.532 147.717 197.504 149.709L185.158 156.837C181.477 158.963 178.492 164.132 178.492 168.382C178.492 172.632 181.476 174.355 185.158 172.23L265.704 125.726C269.385 123.601 272.369 118.432 272.369 114.182C272.369 109.932 269.385 108.209 265.704 110.334Z" fill="#82E3D0" fill-opacity="0.5"/>
</g>
</svg>
