<svg viewBox="0 0 198 32" fill="none" xmlns="http://www.w3.org/2000/svg">
<path d="M13.254 15.0557V25.0687C13.2459 25.648 13.0434 26.2071 12.6801 26.6534L12.6022 26.7399L12.4179 26.9272C11.9509 27.3594 11.3418 27.5983 10.7103 27.5971C10.2907 27.5981 9.87741 27.4941 9.50671 27.2943C9.13601 27.0946 8.81933 26.8052 8.58457 26.4517L8.5208 26.3437C8.47883 26.2765 8.44097 26.2067 8.40743 26.1348C8.239 25.7824 8.15177 25.3956 8.15235 25.0038V20.2422L13.254 15.0557Z" fill="url(#paint0_linear_2241_737)"/>
<path d="M26.9494 15.0557V25.0975C26.9362 25.6646 26.7395 26.2115 26.3896 26.6534L26.3117 26.7327L26.0849 26.9632C25.693 27.3154 25.2037 27.5362 24.6838 27.5955C24.164 27.6548 23.6388 27.5497 23.1798 27.2946L22.9814 27.1721C22.6315 26.9352 22.3448 26.6138 22.1469 26.2367C21.9491 25.8595 21.8463 25.4384 21.8477 25.011V20.2422L26.9494 15.0557Z" fill="url(#paint1_linear_2241_737)"/>
<path d="M25.1427 28.7135C24.5704 29.868 23.64 30.7988 22.4953 31.3621C21.3506 31.9254 20.0554 32.0898 18.8096 31.8299C17.5639 31.5701 16.4369 30.9004 15.6029 29.9244C14.7689 28.9484 14.2742 27.7203 14.1953 26.43V8.11845C14.1953 7.08678 14.5984 6.09736 15.316 5.36785C16.0336 4.63835 17.0068 4.22852 18.0216 4.22852C19.0364 4.22852 20.0096 4.63835 20.7272 5.36785C21.4447 6.09736 21.8479 7.08678 21.8479 8.11845V26.2355C21.8479 26.9233 22.1166 27.5829 22.595 28.0692C23.0734 28.5555 23.7222 28.8288 24.3987 28.8288C24.6512 28.8314 24.9025 28.7925 25.1427 28.7135Z" fill="url(#paint2_linear_2241_737)"/>
<path d="M38.8348 28.7211C38.256 29.8867 37.312 30.8232 36.1516 31.3828C34.9912 31.9425 33.6806 32.0934 32.4264 31.8118C31.1723 31.5303 30.0461 30.8322 29.2255 29.8277C28.4049 28.8233 27.9366 27.5697 27.8945 26.2647V12.3401C27.8945 11.3085 28.2977 10.319 29.0152 9.58953C29.7328 8.86003 30.706 8.4502 31.7208 8.4502C32.7356 8.4502 33.7088 8.86003 34.4264 9.58953C35.144 10.319 35.5471 11.3085 35.5471 12.3401V26.2359C35.5482 26.6402 35.642 27.0387 35.8211 27.3997C36.0002 27.7607 36.2596 28.0743 36.5788 28.3155C36.8979 28.5568 37.268 28.7191 37.6596 28.7895C38.0513 28.8599 38.4537 28.8365 38.8348 28.7211V28.7211Z" fill="url(#paint3_linear_2241_737)"/>
<path d="M12.4111 28.1665L10.2074 30.4068C9.41831 31.1611 8.43649 31.6745 7.37406 31.8885C6.31163 32.1025 5.21142 32.0084 4.19907 31.617C3.18672 31.2256 2.30304 30.5527 1.64895 29.6751C0.99486 28.7974 0.59672 27.7505 0.5 26.6538L0.5 16.6624C0.5 15.6307 0.903125 14.6413 1.62069 13.9118C2.33826 13.1823 3.31149 12.7725 4.32628 12.7725C5.34107 12.7725 6.3143 13.1823 7.03186 13.9118C7.74943 14.6413 8.15256 15.6307 8.15256 16.6624V26.236C8.1563 26.9212 8.4267 27.5772 8.90468 28.0604C9.38265 28.5436 10.0293 28.8149 10.7034 28.8149C10.9435 28.8144 11.1823 28.778 11.412 28.7068C11.7802 28.6039 12.1213 28.4194 12.4111 28.1665Z" fill="url(#paint4_linear_2241_737)"/>
<path d="M8.15256 3.88994V5.6188C8.15256 6.65047 7.74943 7.6399 7.03186 8.3694C6.3143 9.0989 5.34107 9.50874 4.32628 9.50874C3.31149 9.50874 2.33826 9.0989 1.62069 8.3694C0.903125 7.6399 0.5 6.65047 0.5 5.6188L0.5 3.88994C0.5 2.85826 0.903125 1.86884 1.62069 1.13934C2.33826 0.409832 3.31149 0 4.32628 0C5.34107 0 6.3143 0.409832 7.03186 1.13934C7.74943 1.86884 8.15256 2.85826 8.15256 3.88994V3.88994Z" fill="url(#paint5_linear_2241_737)"/>
<path d="M48.6129 16.3454C48.6139 17.3457 48.2358 18.308 47.5571 19.0323V19.0323L47.465 19.1332L40.025 26.6898L39.77 26.9419C39.3096 27.3582 38.7139 27.5866 38.0977 27.583C37.4212 27.583 36.7724 27.3098 36.294 26.8234C35.8156 26.3371 35.5469 25.6775 35.5469 24.9897V20.2353L41.924 13.7881L42.2925 13.4135C42.9861 12.789 43.8813 12.4454 44.8079 12.4483C45.8196 12.4559 46.7874 12.8698 47.5002 13.5998C48.213 14.3299 48.6129 15.3168 48.6129 16.3454V16.3454Z" fill="url(#paint6_linear_2241_737)"/>
<path d="M60.2823 6.0147C60.7137 6.01185 61.1362 6.13949 61.4961 6.38139C61.856 6.62329 62.137 6.96853 62.3034 7.37322C62.4698 7.7779 62.5141 8.22374 62.4306 8.65407C62.3471 9.0844 62.1397 9.47977 61.8346 9.78992C61.5295 10.1001 61.1406 10.311 60.7173 10.3959C60.294 10.4807 59.8555 10.4357 59.4574 10.2666C59.0594 10.0974 58.7198 9.8117 58.4818 9.44582C58.2439 9.07994 58.1183 8.6504 58.1211 8.21179C58.123 7.62967 58.3513 7.07193 58.7562 6.66031C59.1611 6.24868 59.7097 6.01659 60.2823 6.0147V6.0147ZM58.4613 28.9077V13.2327H62.1033V28.9077H58.4613Z" fill="white"/>
<path d="M65.6875 28.908V13.233H69.3225V14.9258C69.9193 14.2893 70.6373 13.7829 71.4327 13.4374C72.2282 13.0919 73.0844 12.9145 73.9494 12.916C77.4923 12.916 80.0006 15.4877 80.0006 19.4713V28.908H76.3586V20.2637C76.3586 17.6272 74.9981 16.4026 73.0566 16.4026C70.9309 16.4026 69.3225 17.9729 69.3225 20.451V28.908H65.6875Z" fill="white"/>
<path d="M83.8134 13.2328C83.9928 13.2452 84.1727 13.2189 84.3414 13.1556C84.5101 13.0923 84.6637 12.9935 84.7921 12.8656C84.9206 12.7377 85.021 12.5836 85.0868 12.4135C85.1526 12.2434 85.1823 12.0611 85.1738 11.8785V8.99707H88.8159V13.204H92.7272V16.9282H88.8159V22.547C88.8159 25.0178 89.1844 25.6518 90.6653 25.6518C91.3591 25.6375 92.0498 25.553 92.7272 25.3996V28.9078C91.8894 29.1132 91.0311 29.2196 90.1693 29.2247C86.6264 29.2247 85.2093 27.5895 85.2093 23.642V16.9282H82.375V13.2328H83.8134Z" fill="white"/>
<path d="M102.414 12.9155C106.8 12.9155 109.79 16.1788 109.79 20.8395C109.79 21.4374 109.698 22.1001 109.634 22.7268H98.1624C98.7789 24.6718 100.508 25.8604 102.789 25.8604C103.498 25.8825 104.204 25.7543 104.862 25.4839C105.519 25.2136 106.114 24.807 106.609 24.29L108.911 26.6528C108.121 27.502 107.162 28.1705 106.098 28.6139C105.034 29.0573 103.889 29.2654 102.74 29.2245C101.669 29.2564 100.603 29.0688 99.6058 28.6727C98.6082 28.2765 97.6994 27.6801 96.9335 26.919C96.1677 26.1579 95.5605 25.2477 95.1484 24.2428C94.7362 23.2379 94.5274 22.1588 94.5346 21.07C94.5039 20.0029 94.6858 18.9404 95.0691 17.9465C95.4524 16.9526 96.0293 16.0477 96.7652 15.2861C97.5011 14.5245 98.3808 13.9219 99.3515 13.5145C100.322 13.1072 101.364 12.9034 102.414 12.9155ZM98.0987 19.8454H106.368C106.268 18.842 105.8 17.9137 105.056 17.246C104.313 16.5783 103.349 16.2204 102.357 16.2436C101.338 16.2138 100.342 16.5632 99.5584 17.2264C98.7743 17.8895 98.2553 18.8208 98.0987 19.8454V19.8454Z" fill="white"/>
<path d="M112.453 28.9081V13.2331H116.095V15.0196C116.667 14.3447 117.378 13.8064 118.178 13.4428C118.977 13.0792 119.846 12.8994 120.722 12.9161V16.4315C120.588 16.4133 120.452 16.4133 120.318 16.4315C119.775 16.4013 119.231 16.4833 118.719 16.6726C118.208 16.8618 117.739 17.1544 117.342 17.5327C116.945 17.911 116.627 18.3671 116.408 18.8736C116.189 19.3802 116.073 19.9265 116.067 20.4799V28.9081H112.453Z" fill="white"/>
<path d="M121.508 13.2334H125.334L128.232 23.3184L131.066 13.2334H134.418L137.252 23.3184L140.157 13.2334H143.984L139.201 28.9084H135.268L132.739 20.5378L130.167 28.9084H126.276L121.508 13.2334Z" fill="white"/>
<path d="M152.388 12.9164C156.767 12.9164 159.757 16.1796 159.757 20.8403C159.757 21.4382 159.665 22.1009 159.608 22.7277H148.129C148.746 24.6726 150.475 25.8612 152.756 25.8612C153.466 25.8826 154.173 25.7541 154.831 25.4838C155.49 25.2135 156.086 24.8073 156.583 24.2908L158.9 26.6536C158.109 27.5028 157.15 28.1713 156.086 28.6147C155.022 29.0581 153.877 29.2662 152.728 29.2253C151.658 29.2573 150.592 29.0696 149.594 28.6735C148.597 28.2774 147.688 27.681 146.922 26.9199C146.156 26.1588 145.549 25.2486 145.137 24.2436C144.724 23.2387 144.516 22.1596 144.523 21.0708C144.492 20.0049 144.674 18.9437 145.056 17.9507C145.439 16.9578 146.014 16.0535 146.749 15.2921C147.483 14.5307 148.361 13.9279 149.33 13.5196C150.299 13.1114 151.339 12.9062 152.388 12.9164V12.9164ZM148.073 19.8462H156.335C156.237 18.8422 155.769 17.9129 155.025 17.2449C154.281 16.5769 153.316 16.2195 152.324 16.2444C151.306 16.2148 150.311 16.5645 149.528 17.2278C148.745 17.8911 148.228 18.8222 148.073 19.8462V19.8462Z" fill="white"/>
<path d="M162.414 6.33203H166.056V15.178C166.647 14.4837 167.375 13.9234 168.193 13.5338C169.011 13.1441 169.9 12.9336 170.804 12.9161C175.246 12.9161 178.456 16.5827 178.456 21.0706C178.456 25.5584 175.246 29.225 170.804 29.225C169.894 29.2101 168.999 28.995 168.18 28.5946C167.36 28.1942 166.636 27.6179 166.056 26.9055V28.9081H162.414V6.33203ZM166.056 21.0706C166.056 21.9511 166.313 22.8118 166.794 23.5439C167.275 24.276 167.959 24.8466 168.759 25.1835C169.559 25.5205 170.44 25.6086 171.289 25.4368C172.139 25.2651 172.919 24.8411 173.531 24.2185C174.144 23.5959 174.561 22.8026 174.73 21.9391C174.899 21.0755 174.812 20.1804 174.481 19.3669C174.149 18.5535 173.588 17.8582 172.868 17.369C172.148 16.8798 171.301 16.6188 170.435 16.6188C169.275 16.6226 168.163 17.0928 167.343 17.9269C166.522 18.7609 166.06 19.891 166.056 21.0706Z" fill="white"/>
<path d="M181.105 6.33203H184.726V15.178C185.317 14.4837 186.045 13.9234 186.863 13.5338C187.681 13.1441 188.571 12.9336 189.474 12.9161C193.916 12.9161 197.126 16.5827 197.126 21.0706C197.126 25.5584 193.938 29.225 189.495 29.225C188.586 29.2101 187.691 28.995 186.871 28.5946C186.051 28.1942 185.327 27.6179 184.748 26.9055V28.9081H181.105V6.33203ZM184.726 21.0706C184.726 21.9511 184.983 22.8118 185.464 23.5439C185.945 24.276 186.629 24.8466 187.429 25.1835C188.23 25.5205 189.11 25.6086 189.96 25.4368C190.809 25.2651 191.589 24.8411 192.202 24.2185C192.814 23.5959 193.231 22.8026 193.4 21.9391C193.569 21.0755 193.482 20.1804 193.151 19.3669C192.819 18.5535 192.258 17.8582 191.538 17.369C190.818 16.8798 189.971 16.6188 189.105 16.6188C187.945 16.6226 186.833 17.0928 186.013 17.9269C185.193 18.7609 184.73 19.891 184.726 21.0706V21.0706Z" fill="white"/>
<defs>
<linearGradient id="paint0_linear_2241_737" x1="9.12309" y1="24.9174" x2="17.4366" y2="15.7178" gradientUnits="userSpaceOnUse">
<stop offset="0.1" stop-color="#06BFFF"/>
<stop offset="0.58" stop-color="#41F0FC"/>
</linearGradient>
<linearGradient id="paint1_linear_2241_737" x1="22.1949" y1="24.3627" x2="31.2313" y2="17.5552" gradientUnits="userSpaceOnUse">
<stop stop-color="#06BFFF"/>
<stop offset="0.48" stop-color="#41F0FC"/>
</linearGradient>
<linearGradient id="paint2_linear_2241_737" x1="20.7708" y1="36.1188" x2="16.7306" y2="6.06115" gradientUnits="userSpaceOnUse">
<stop stop-color="#06BFFF"/>
<stop offset="0.51" stop-color="#7EF9FC"/>
<stop offset="0.87" stop-color="#41F0FC"/>
</linearGradient>
<linearGradient id="paint3_linear_2241_737" x1="34.4205" y1="34.3471" x2="30.0886" y2="7.71612" gradientUnits="userSpaceOnUse">
<stop stop-color="#06BFFF"/>
<stop offset="0.51" stop-color="#7EF9FC"/>
<stop offset="0.87" stop-color="#41F0FC"/>
</linearGradient>
<linearGradient id="paint4_linear_2241_737" x1="7.7841" y1="37.6897" x2="3.74389" y2="7.63202" gradientUnits="userSpaceOnUse">
<stop stop-color="#06BFFF"/>
<stop offset="0.51" stop-color="#7EF9FC"/>
<stop offset="0.87" stop-color="#41F0FC"/>
</linearGradient>
<linearGradient id="paint5_linear_2241_737" x1="5.95599" y1="15.6966" x2="3.26298" y2="-1.82378" gradientUnits="userSpaceOnUse">
<stop stop-color="#06BFFF"/>
<stop offset="0.51" stop-color="#7EF9FC"/>
<stop offset="0.87" stop-color="#41F0FC"/>
</linearGradient>
<linearGradient id="paint6_linear_2241_737" x1="37.4954" y1="22.7566" x2="48.2077" y2="15.1517" gradientUnits="userSpaceOnUse">
<stop stop-color="#06BFFF"/>
<stop offset="0.7" stop-color="#41F0FC"/>
</linearGradient>
</defs>
</svg>
