<svg viewBox="0 0 197 32" fill="none" xmlns="http://www.w3.org/2000/svg">
<path d="M12.754 15.0557V25.0687C12.7459 25.648 12.5434 26.2071 12.1801 26.6534L12.1022 26.7399L11.9179 26.9272C11.4509 27.3594 10.8418 27.5983 10.2103 27.5971C9.79074 27.5981 9.37741 27.4941 9.00671 27.2943C8.63601 27.0946 8.31933 26.8052 8.08457 26.4517L8.0208 26.3437C7.97883 26.2765 7.94097 26.2067 7.90743 26.1348C7.739 25.7824 7.65177 25.3956 7.65235 25.0038V20.2422L12.754 15.0557Z" fill="url(#paint0_linear_2242_738)"/>
<path d="M26.4494 15.0557V25.0975C26.4362 25.6646 26.2395 26.2115 25.8896 26.6534L25.8117 26.7327L25.5849 26.9632C25.193 27.3154 24.7037 27.5362 24.1838 27.5955C23.664 27.6548 23.1388 27.5497 22.6798 27.2946L22.4814 27.1721C22.1315 26.9352 21.8448 26.6138 21.6469 26.2367C21.4491 25.8595 21.3463 25.4384 21.3477 25.011V20.2422L26.4494 15.0557Z" fill="url(#paint1_linear_2242_738)"/>
<path d="M24.6427 28.7135C24.0704 29.868 23.14 30.7988 21.9953 31.3621C20.8506 31.9254 19.5554 32.0898 18.3096 31.8299C17.0639 31.5701 15.9369 30.9004 15.1029 29.9244C14.2689 28.9484 13.7742 27.7203 13.6953 26.43V8.11845C13.6953 7.08678 14.0984 6.09736 14.816 5.36785C15.5336 4.63835 16.5068 4.22852 17.5216 4.22852C18.5364 4.22852 19.5096 4.63835 20.2272 5.36785C20.9447 6.09736 21.3479 7.08678 21.3479 8.11845V26.2355C21.3479 26.9233 21.6166 27.5829 22.095 28.0692C22.5734 28.5555 23.2222 28.8288 23.8987 28.8288C24.1512 28.8314 24.4025 28.7925 24.6427 28.7135Z" fill="url(#paint2_linear_2242_738)"/>
<path d="M38.3348 28.7211C37.756 29.8867 36.812 30.8232 35.6516 31.3828C34.4912 31.9425 33.1806 32.0934 31.9264 31.8118C30.6723 31.5303 29.5461 30.8322 28.7255 29.8277C27.9049 28.8233 27.4366 27.5697 27.3945 26.2647V12.3401C27.3945 11.3085 27.7977 10.319 28.5152 9.58953C29.2328 8.86003 30.206 8.4502 31.2208 8.4502C32.2356 8.4502 33.2088 8.86003 33.9264 9.58953C34.644 10.319 35.0471 11.3085 35.0471 12.3401V26.2359C35.0482 26.6402 35.142 27.0387 35.3211 27.3997C35.5002 27.7607 35.7596 28.0743 36.0788 28.3155C36.3979 28.5568 36.768 28.7191 37.1596 28.7895C37.5513 28.8599 37.9537 28.8365 38.3348 28.7211V28.7211Z" fill="url(#paint3_linear_2242_738)"/>
<path d="M11.9111 28.1665L9.70741 30.4068C8.91831 31.1611 7.93649 31.6745 6.87406 31.8885C5.81163 32.1025 4.71142 32.0084 3.69907 31.617C2.68672 31.2256 1.80304 30.5527 1.14895 29.6751C0.49486 28.7974 0.0967202 27.7505 0 26.6538L0 16.6624C0 15.6307 0.403125 14.6413 1.12069 13.9118C1.83826 13.1823 2.81149 12.7725 3.82628 12.7725C4.84107 12.7725 5.8143 13.1823 6.53186 13.9118C7.24943 14.6413 7.65256 15.6307 7.65256 16.6624V26.236C7.6563 26.9212 7.9267 27.5772 8.40468 28.0604C8.88265 28.5436 9.52933 28.8149 10.2034 28.8149C10.4435 28.8144 10.6823 28.778 10.912 28.7068C11.2802 28.6039 11.6213 28.4194 11.9111 28.1665Z" fill="url(#paint4_linear_2242_738)"/>
<path d="M7.65256 3.88994V5.6188C7.65256 6.65047 7.24943 7.6399 6.53186 8.3694C5.8143 9.0989 4.84107 9.50874 3.82628 9.50874C2.81149 9.50874 1.83826 9.0989 1.12069 8.3694C0.403125 7.6399 0 6.65047 0 5.6188L0 3.88994C0 2.85826 0.403125 1.86884 1.12069 1.13934C1.83826 0.409832 2.81149 0 3.82628 0C4.84107 0 5.8143 0.409832 6.53186 1.13934C7.24943 1.86884 7.65256 2.85826 7.65256 3.88994V3.88994Z" fill="url(#paint5_linear_2242_738)"/>
<path d="M48.1129 16.3454C48.1139 17.3457 47.7358 18.308 47.0571 19.0323V19.0323L46.965 19.1332L39.525 26.6898L39.27 26.9419C38.8096 27.3582 38.2139 27.5866 37.5977 27.583C36.9212 27.583 36.2724 27.3098 35.794 26.8234C35.3156 26.3371 35.0469 25.6775 35.0469 24.9897V20.2353L41.424 13.7881L41.7925 13.4135C42.4861 12.789 43.3813 12.4454 44.3079 12.4483C45.3196 12.4559 46.2874 12.8698 47.0002 13.5998C47.713 14.3299 48.1129 15.3168 48.1129 16.3454V16.3454Z" fill="url(#paint6_linear_2242_738)"/>
<path d="M59.7823 6.0147C60.2137 6.01185 60.6362 6.13949 60.9961 6.38139C61.356 6.62329 61.637 6.96853 61.8034 7.37322C61.9698 7.7779 62.0141 8.22374 61.9306 8.65407C61.8471 9.0844 61.6397 9.47977 61.3346 9.78992C61.0295 10.1001 60.6406 10.311 60.2173 10.3959C59.794 10.4807 59.3555 10.4357 58.9574 10.2666C58.5594 10.0974 58.2198 9.8117 57.9818 9.44582C57.7439 9.07994 57.6183 8.6504 57.6211 8.21179C57.623 7.62967 57.8513 7.07193 58.2562 6.66031C58.6611 6.24868 59.2097 6.01659 59.7823 6.0147V6.0147ZM57.9613 28.9077V13.2327H61.6033V28.9077H57.9613Z" fill="black"/>
<path d="M65.1875 28.908V13.233H68.8225V14.9258C69.4193 14.2893 70.1373 13.7829 70.9327 13.4374C71.7282 13.0919 72.5844 12.9145 73.4494 12.916C76.9923 12.916 79.5006 15.4877 79.5006 19.4713V28.908H75.8586V20.2637C75.8586 17.6272 74.4981 16.4026 72.5566 16.4026C70.4309 16.4026 68.8225 17.9729 68.8225 20.451V28.908H65.1875Z" fill="black"/>
<path d="M83.3134 13.2328C83.4928 13.2452 83.6727 13.2189 83.8414 13.1556C84.0101 13.0923 84.1637 12.9935 84.2921 12.8656C84.4206 12.7377 84.521 12.5836 84.5868 12.4135C84.6526 12.2434 84.6823 12.0611 84.6738 11.8785V8.99707H88.3159V13.204H92.2272V16.9282H88.3159V22.547C88.3159 25.0178 88.6844 25.6518 90.1653 25.6518C90.8591 25.6375 91.5498 25.553 92.2272 25.3996V28.9078C91.3894 29.1132 90.5311 29.2196 89.6693 29.2247C86.1264 29.2247 84.7093 27.5895 84.7093 23.642V16.9282H81.875V13.2328H83.3134Z" fill="black"/>
<path d="M101.914 12.9155C106.3 12.9155 109.29 16.1788 109.29 20.8395C109.29 21.4374 109.198 22.1001 109.134 22.7268H97.6624C98.2789 24.6718 100.008 25.8604 102.289 25.8604C102.998 25.8825 103.704 25.7543 104.362 25.4839C105.019 25.2136 105.614 24.807 106.109 24.29L108.411 26.6528C107.621 27.502 106.662 28.1705 105.598 28.6139C104.534 29.0573 103.389 29.2654 102.24 29.2245C101.169 29.2564 100.103 29.0688 99.1058 28.6727C98.1082 28.2765 97.1994 27.6801 96.4335 26.919C95.6677 26.1579 95.0605 25.2477 94.6484 24.2428C94.2362 23.2379 94.0274 22.1588 94.0346 21.07C94.0039 20.0029 94.1858 18.9404 94.5691 17.9465C94.9524 16.9526 95.5293 16.0477 96.2652 15.2861C97.0011 14.5245 97.8808 13.9219 98.8515 13.5145C99.8222 13.1072 100.864 12.9034 101.914 12.9155ZM97.5987 19.8454H105.868C105.768 18.842 105.3 17.9137 104.556 17.246C103.813 16.5783 102.849 16.2204 101.857 16.2436C100.838 16.2138 99.8425 16.5632 99.0584 17.2264C98.2743 17.8895 97.7553 18.8208 97.5987 19.8454V19.8454Z" fill="black"/>
<path d="M111.953 28.9081V13.2331H115.595V15.0196C116.167 14.3447 116.878 13.8064 117.678 13.4428C118.477 13.0792 119.346 12.8994 120.222 12.9161V16.4315C120.088 16.4133 119.952 16.4133 119.818 16.4315C119.275 16.4013 118.731 16.4833 118.219 16.6726C117.708 16.8618 117.239 17.1544 116.842 17.5327C116.445 17.911 116.127 18.3671 115.908 18.8736C115.689 19.3802 115.573 19.9265 115.567 20.4799V28.9081H111.953Z" fill="black"/>
<path d="M121.008 13.2334H124.834L127.732 23.3184L130.566 13.2334H133.918L136.752 23.3184L139.657 13.2334H143.484L138.701 28.9084H134.768L132.239 20.5378L129.667 28.9084H125.776L121.008 13.2334Z" fill="black"/>
<path d="M151.888 12.9164C156.267 12.9164 159.257 16.1796 159.257 20.8403C159.257 21.4382 159.165 22.1009 159.108 22.7277H147.629C148.246 24.6726 149.975 25.8612 152.256 25.8612C152.966 25.8826 153.673 25.7541 154.331 25.4838C154.99 25.2135 155.586 24.8073 156.083 24.2908L158.4 26.6536C157.609 27.5028 156.65 28.1713 155.586 28.6147C154.522 29.0581 153.377 29.2662 152.228 29.2253C151.158 29.2573 150.092 29.0696 149.094 28.6735C148.097 28.2774 147.188 27.681 146.422 26.9199C145.656 26.1588 145.049 25.2486 144.637 24.2436C144.224 23.2387 144.016 22.1596 144.023 21.0708C143.992 20.0049 144.174 18.9437 144.556 17.9507C144.939 16.9578 145.514 16.0535 146.249 15.2921C146.983 14.5307 147.861 13.9279 148.83 13.5196C149.799 13.1114 150.839 12.9062 151.888 12.9164V12.9164ZM147.573 19.8462H155.835C155.737 18.8422 155.269 17.9129 154.525 17.2449C153.781 16.5769 152.816 16.2195 151.824 16.2444C150.806 16.2148 149.811 16.5645 149.028 17.2278C148.245 17.8911 147.728 18.8222 147.573 19.8462V19.8462Z" fill="black"/>
<path d="M161.914 6.33203H165.556V15.178C166.147 14.4837 166.875 13.9234 167.693 13.5338C168.511 13.1441 169.4 12.9336 170.304 12.9161C174.746 12.9161 177.956 16.5827 177.956 21.0706C177.956 25.5584 174.746 29.225 170.304 29.225C169.394 29.2101 168.499 28.995 167.68 28.5946C166.86 28.1942 166.136 27.6179 165.556 26.9055V28.9081H161.914V6.33203ZM165.556 21.0706C165.556 21.9511 165.813 22.8118 166.294 23.5439C166.775 24.276 167.459 24.8466 168.259 25.1835C169.059 25.5205 169.94 25.6086 170.789 25.4368C171.639 25.2651 172.419 24.8411 173.031 24.2185C173.644 23.5959 174.061 22.8026 174.23 21.9391C174.399 21.0755 174.312 20.1804 173.981 19.3669C173.649 18.5535 173.088 17.8582 172.368 17.369C171.648 16.8798 170.801 16.6188 169.935 16.6188C168.775 16.6226 167.663 17.0928 166.843 17.9269C166.022 18.7609 165.56 19.891 165.556 21.0706Z" fill="black"/>
<path d="M180.605 6.33203H184.226V15.178C184.817 14.4837 185.545 13.9234 186.363 13.5338C187.181 13.1441 188.071 12.9336 188.974 12.9161C193.416 12.9161 196.626 16.5827 196.626 21.0706C196.626 25.5584 193.438 29.225 188.995 29.225C188.086 29.2101 187.191 28.995 186.371 28.5946C185.551 28.1942 184.827 27.6179 184.248 26.9055V28.9081H180.605V6.33203ZM184.226 21.0706C184.226 21.9511 184.483 22.8118 184.964 23.5439C185.445 24.276 186.129 24.8466 186.929 25.1835C187.73 25.5205 188.61 25.6086 189.46 25.4368C190.309 25.2651 191.089 24.8411 191.702 24.2185C192.314 23.5959 192.731 22.8026 192.9 21.9391C193.069 21.0755 192.982 20.1804 192.651 19.3669C192.319 18.5535 191.758 17.8582 191.038 17.369C190.318 16.8798 189.471 16.6188 188.605 16.6188C187.445 16.6226 186.333 17.0928 185.513 17.9269C184.693 18.7609 184.23 19.891 184.226 21.0706V21.0706Z" fill="black"/>
<defs>
<linearGradient id="paint0_linear_2242_738" x1="8.62309" y1="24.9174" x2="16.9366" y2="15.7178" gradientUnits="userSpaceOnUse">
<stop offset="0.1" stop-color="#06BFFF"/>
<stop offset="0.58" stop-color="#41F0FC"/>
</linearGradient>
<linearGradient id="paint1_linear_2242_738" x1="21.6949" y1="24.3627" x2="30.7313" y2="17.5552" gradientUnits="userSpaceOnUse">
<stop stop-color="#06BFFF"/>
<stop offset="0.48" stop-color="#41F0FC"/>
</linearGradient>
<linearGradient id="paint2_linear_2242_738" x1="20.2708" y1="36.1188" x2="16.2306" y2="6.06115" gradientUnits="userSpaceOnUse">
<stop stop-color="#06BFFF"/>
<stop offset="0.51" stop-color="#7EF9FC"/>
<stop offset="0.87" stop-color="#41F0FC"/>
</linearGradient>
<linearGradient id="paint3_linear_2242_738" x1="33.9205" y1="34.3471" x2="29.5886" y2="7.71612" gradientUnits="userSpaceOnUse">
<stop stop-color="#06BFFF"/>
<stop offset="0.51" stop-color="#7EF9FC"/>
<stop offset="0.87" stop-color="#41F0FC"/>
</linearGradient>
<linearGradient id="paint4_linear_2242_738" x1="7.2841" y1="37.6897" x2="3.24389" y2="7.63202" gradientUnits="userSpaceOnUse">
<stop stop-color="#06BFFF"/>
<stop offset="0.51" stop-color="#7EF9FC"/>
<stop offset="0.87" stop-color="#41F0FC"/>
</linearGradient>
<linearGradient id="paint5_linear_2242_738" x1="5.45599" y1="15.6966" x2="2.76298" y2="-1.82378" gradientUnits="userSpaceOnUse">
<stop stop-color="#06BFFF"/>
<stop offset="0.51" stop-color="#7EF9FC"/>
<stop offset="0.87" stop-color="#41F0FC"/>
</linearGradient>
<linearGradient id="paint6_linear_2242_738" x1="36.9954" y1="22.7566" x2="47.7077" y2="15.1517" gradientUnits="userSpaceOnUse">
<stop stop-color="#06BFFF"/>
<stop offset="0.7" stop-color="#41F0FC"/>
</linearGradient>
</defs>
</svg>
