<svg viewBox="0 0 168 39" fill="none" xmlns="http://www.w3.org/2000/svg">
<rect x="0.303109" y="0.303109" width="38.1917" height="38.1917" rx="11.4231" stroke="#38CFB1" strokeWidth="0.606218"/>
<path d="M11.4367 31.1252V22.8033L17.4829 16.7749L31.8491 31.1252H23.6841L17.4829 24.9531L11.4367 31.1252Z" fill="#38CFB1"/>
<path d="M17.4829 14.8719L11.4367 20.8897V12.043L17.4829 5.35645V14.8719Z" fill="#38CFB1"/>
<path d="M22.1855 19.4495L18.6198 15.9006L22.4956 12.043H30.4538L22.1855 19.4495Z" fill="#38CFB1"/>
<path d="M47.848 33V6.02331H54.3683V17.4304H54.7239L63.6415 6.02331H71.3209L61.7579 18.0627L71.4922 33H63.6942L56.9764 22.3964L54.3683 25.6894V33H47.848ZM79.5964 33.3425C78.3055 33.3425 77.1595 33.1273 76.1584 32.697C75.1661 32.258 74.3802 31.5994 73.8006 30.7212C73.2298 29.8343 72.9444 28.7234 72.9444 27.3886C72.9444 26.2646 73.142 25.3162 73.5371 24.5434C73.9323 23.7707 74.4768 23.1428 75.1705 22.6598C75.8642 22.1768 76.6634 21.8124 77.5678 21.5665C78.4723 21.3119 79.4383 21.1406 80.4657 21.0528C81.6161 20.9474 82.5425 20.8377 83.2451 20.7235C83.9476 20.6006 84.4569 20.4293 84.773 20.2098C85.098 19.9815 85.2604 19.6609 85.2604 19.2482V19.1824C85.2604 18.5062 85.0277 17.9837 84.5623 17.6149C84.0969 17.246 83.469 17.0616 82.6787 17.0616C81.8269 17.0616 81.1419 17.246 80.6238 17.6149C80.1057 17.9837 79.7764 18.493 79.6359 19.1428L73.6952 18.9321C73.8708 17.7027 74.3231 16.605 75.052 15.639C75.7896 14.6643 76.7995 13.9003 78.0816 13.3471C79.3724 12.785 80.9224 12.504 82.7314 12.504C84.0222 12.504 85.2121 12.6577 86.301 12.9651C87.3899 13.2636 88.3383 13.7027 89.1462 14.2823C89.9541 14.8531 90.5776 15.5556 91.0167 16.3898C91.4645 17.2241 91.6885 18.1769 91.6885 19.2482V33H85.6292V30.1811H85.4712C85.1111 30.8661 84.6501 31.4457 84.0881 31.9199C83.5349 32.3941 82.8806 32.7497 82.1254 32.9868C81.379 33.2239 80.536 33.3425 79.5964 33.3425ZM81.5854 29.1274C82.2791 29.1274 82.9026 28.9869 83.4558 28.7059C84.0178 28.4249 84.4657 28.0385 84.7994 27.5467C85.1331 27.0462 85.2999 26.4666 85.2999 25.808V23.8848C85.1155 23.9814 84.8916 24.0692 84.6281 24.1483C84.3735 24.2273 84.0925 24.302 83.7851 24.3722C83.4778 24.4425 83.1616 24.5039 82.8367 24.5566C82.5118 24.6093 82.2001 24.6576 81.9015 24.7015C81.2956 24.7981 80.7775 24.9474 80.3472 25.1494C79.9257 25.3513 79.6008 25.6148 79.3724 25.9397C79.1529 26.2558 79.0431 26.6334 79.0431 27.0725C79.0431 27.7399 79.2802 28.2492 79.7544 28.6005C80.2374 28.9517 80.8477 29.1274 81.5854 29.1274ZM95.6269 33V12.7675H101.884V16.4557H102.094C102.463 15.1209 103.065 14.1286 103.899 13.4788C104.733 12.8202 105.704 12.4909 106.81 12.4909C107.109 12.4909 107.416 12.5128 107.732 12.5567C108.048 12.5919 108.343 12.6489 108.615 12.728V18.3262C108.307 18.2208 107.903 18.1374 107.403 18.0759C106.911 18.0144 106.472 17.9837 106.086 17.9837C105.322 17.9837 104.632 18.1549 104.018 18.4974C103.412 18.8311 102.933 19.3009 102.582 19.9068C102.239 20.504 102.068 21.2065 102.068 22.0144V33H95.6269ZM111.239 33V12.7675H117.681V33H111.239ZM114.467 10.4097C113.562 10.4097 112.785 10.1111 112.135 9.51395C111.485 8.90803 111.16 8.17916 111.16 7.32736C111.16 6.48434 111.485 5.76426 112.135 5.16712C112.785 4.5612 113.562 4.25823 114.467 4.25823C115.38 4.25823 116.157 4.5612 116.798 5.16712C117.448 5.76426 117.773 6.48434 117.773 7.32736C117.773 8.17916 117.448 8.90803 116.798 9.51395C116.157 10.1111 115.38 10.4097 114.467 10.4097ZM121.78 33V6.02331H128.222V16.2318H128.353C128.617 15.6171 128.99 15.0243 129.473 14.4535C129.965 13.8827 130.588 13.4173 131.343 13.0573C132.107 12.6885 133.021 12.504 134.083 12.504C135.488 12.504 136.801 12.8729 138.022 13.6105C139.251 14.3481 140.243 15.4854 140.999 17.0221C141.754 18.5589 142.131 20.5171 142.131 22.8969C142.131 25.1889 141.767 27.1076 141.038 28.6532C140.318 30.1987 139.343 31.3579 138.114 32.1306C136.893 32.9034 135.537 33.2898 134.044 33.2898C133.025 33.2898 132.143 33.1229 131.396 32.7892C130.65 32.4555 130.022 32.0165 129.512 31.472C129.012 30.9276 128.626 30.3436 128.353 29.7201H128.156V33H121.78ZM128.09 22.8837C128.09 23.9726 128.235 24.921 128.525 25.7289C128.823 26.5368 129.249 27.1647 129.802 27.6126C130.364 28.0516 131.036 28.2712 131.818 28.2712C132.608 28.2712 133.28 28.0516 133.833 27.6126C134.386 27.1647 134.803 26.5368 135.084 25.7289C135.374 24.921 135.519 23.9726 135.519 22.8837C135.519 21.7948 135.374 20.8508 135.084 20.0517C134.803 19.2526 134.386 18.6335 133.833 18.1944C133.288 17.7554 132.617 17.5358 131.818 17.5358C131.027 17.5358 130.355 17.751 129.802 18.1813C129.249 18.6116 128.823 19.2263 128.525 20.0254C128.235 20.8245 128.09 21.7773 128.09 22.8837ZM158.56 24.2668V12.7675H164.989V33H158.85V29.2327H158.64C158.192 30.4709 157.428 31.4545 156.348 32.1833C155.276 32.9034 153.981 33.2634 152.462 33.2634C151.083 33.2634 149.871 32.9473 148.826 32.315C147.781 31.6828 146.969 30.8002 146.389 29.6674C145.81 28.5258 145.516 27.1911 145.507 25.6631V12.7675H151.948V24.3985C151.957 25.4962 152.247 26.3612 152.817 26.9935C153.388 27.6257 154.165 27.9419 155.149 27.9419C155.79 27.9419 156.365 27.8014 156.874 27.5204C157.393 27.2306 157.801 26.8135 158.099 26.269C158.407 25.7158 158.56 25.0484 158.56 24.2668Z" fill="white"/>
</svg>
