<svg  viewBox="0 0 169 39" fill="none" xmlns="http://www.w3.org/2000/svg">
<rect x="1.15614" y="0.303109" width="38.1917" height="38.1917" rx="11.4231" stroke="#38CFB1" strokeWidth="0.606218"/>
<path d="M12.2897 31.1252V22.8033L18.3359 16.7749L32.7021 31.1252H24.5372L18.3359 24.9531L12.2897 31.1252Z" fill="#37CEB0"/>
<path d="M18.3359 14.8719L12.2897 20.8897V12.043L18.3359 5.35645V14.8719Z" fill="#37CEB0"/>
<path d="M23.0385 19.4495L19.4728 15.9006L23.3486 12.043H31.3068L23.0385 19.4495Z" fill="#37CEB0"/>
<path d="M48.7011 33V6.02331H55.2213V17.4304H55.577L64.4946 6.02331H72.174L62.6109 18.0627L72.3452 33H64.5472L57.8294 22.3964L55.2213 25.6894V33H48.7011ZM80.4494 33.3425C79.1585 33.3425 78.0125 33.1273 77.0114 32.697C76.0191 32.258 75.2332 31.5994 74.6536 30.7212C74.0828 29.8343 73.7974 28.7234 73.7974 27.3886C73.7974 26.2646 73.995 25.3162 74.3902 24.5434C74.7853 23.7707 75.3298 23.1428 76.0235 22.6598C76.7173 22.1768 77.5164 21.8124 78.4209 21.5665C79.3254 21.3119 80.2913 21.1406 81.3188 21.0528C82.4691 20.9474 83.3956 20.8377 84.0981 20.7235C84.8006 20.6006 85.3099 20.4293 85.6261 20.2098C85.951 19.9815 86.1134 19.6609 86.1134 19.2482V19.1824C86.1134 18.5062 85.8807 17.9837 85.4153 17.6149C84.9499 17.246 84.322 17.0616 83.5317 17.0616C82.6799 17.0616 81.9949 17.246 81.4768 17.6149C80.9587 17.9837 80.6294 18.493 80.4889 19.1428L74.5482 18.9321C74.7239 17.7027 75.1761 16.605 75.905 15.639C76.6426 14.6643 77.6525 13.9003 78.9346 13.3471C80.2255 12.785 81.7754 12.504 83.5844 12.504C84.8753 12.504 86.0651 12.6577 87.154 12.9651C88.2429 13.2636 89.1913 13.7027 89.9992 14.2823C90.8071 14.8531 91.4306 15.5556 91.8697 16.3898C92.3176 17.2241 92.5415 18.1769 92.5415 19.2482V33H86.4823V30.1811H86.3242C85.9642 30.8661 85.5031 31.4457 84.9411 31.9199C84.3879 32.3941 83.7337 32.7497 82.9785 32.9868C82.232 33.2239 81.389 33.3425 80.4494 33.3425ZM82.4384 29.1274C83.1321 29.1274 83.7556 28.9869 84.3089 28.7059C84.8709 28.4249 85.3187 28.0385 85.6524 27.5467C85.9861 27.0462 86.153 26.4666 86.153 25.808V23.8848C85.9685 23.9814 85.7446 24.0692 85.4812 24.1483C85.2265 24.2273 84.9455 24.302 84.6382 24.3722C84.3308 24.4425 84.0147 24.5039 83.6898 24.5566C83.3648 24.6093 83.0531 24.6576 82.7545 24.7015C82.1486 24.7981 81.6305 24.9474 81.2002 25.1494C80.7787 25.3513 80.4538 25.6148 80.2255 25.9397C80.0059 26.2558 79.8962 26.6334 79.8962 27.0725C79.8962 27.7399 80.1333 28.2492 80.6075 28.6005C81.0904 28.9517 81.7008 29.1274 82.4384 29.1274ZM96.48 33V12.7675H102.737V16.4557H102.948C103.316 15.1209 103.918 14.1286 104.752 13.4788C105.586 12.8202 106.557 12.4909 107.663 12.4909C107.962 12.4909 108.269 12.5128 108.585 12.5567C108.901 12.5919 109.196 12.6489 109.468 12.728V18.3262C109.16 18.2208 108.756 18.1374 108.256 18.0759C107.764 18.0144 107.325 17.9837 106.939 17.9837C106.175 17.9837 105.485 18.1549 104.871 18.4974C104.265 18.8311 103.786 19.3009 103.435 19.9068C103.092 20.504 102.921 21.2065 102.921 22.0144V33H96.48ZM112.092 33V12.7675H118.534V33H112.092ZM115.32 10.4097C114.415 10.4097 113.638 10.1111 112.988 9.51395C112.338 8.90803 112.013 8.17916 112.013 7.32736C112.013 6.48434 112.338 5.76426 112.988 5.16712C113.638 4.5612 114.415 4.25823 115.32 4.25823C116.233 4.25823 117.01 4.5612 117.651 5.16712C118.301 5.76426 118.626 6.48434 118.626 7.32736C118.626 8.17916 118.301 8.90803 117.651 9.51395C117.01 10.1111 116.233 10.4097 115.32 10.4097ZM122.633 33V6.02331H129.075V16.2318H129.206C129.47 15.6171 129.843 15.0243 130.326 14.4535C130.818 13.8827 131.441 13.4173 132.196 13.0573C132.96 12.6885 133.874 12.504 134.936 12.504C136.341 12.504 137.654 12.8729 138.875 13.6105C140.104 14.3481 141.096 15.4854 141.852 17.0221C142.607 18.5589 142.984 20.5171 142.984 22.8969C142.984 25.1889 142.62 27.1076 141.891 28.6532C141.171 30.1987 140.196 31.3579 138.967 32.1306C137.746 32.9034 136.39 33.2898 134.897 33.2898C133.878 33.2898 132.996 33.1229 132.249 32.7892C131.503 32.4555 130.875 32.0165 130.365 31.472C129.865 30.9276 129.479 30.3436 129.206 29.7201H129.009V33H122.633ZM128.943 22.8837C128.943 23.9726 129.088 24.921 129.378 25.7289C129.676 26.5368 130.102 27.1647 130.655 27.6126C131.217 28.0516 131.889 28.2712 132.671 28.2712C133.461 28.2712 134.133 28.0516 134.686 27.6126C135.239 27.1647 135.656 26.5368 135.937 25.7289C136.227 24.921 136.372 23.9726 136.372 22.8837C136.372 21.7948 136.227 20.8508 135.937 20.0517C135.656 19.2526 135.239 18.6335 134.686 18.1944C134.142 17.7554 133.47 17.5358 132.671 17.5358C131.88 17.5358 131.209 17.751 130.655 18.1813C130.102 18.6116 129.676 19.2263 129.378 20.0254C129.088 20.8245 128.943 21.7773 128.943 22.8837ZM159.413 24.2668V12.7675H165.842V33H159.703V29.2327H159.493C159.045 30.4709 158.281 31.4545 157.201 32.1833C156.129 32.9034 154.834 33.2634 153.315 33.2634C151.936 33.2634 150.724 32.9473 149.679 32.315C148.634 31.6828 147.822 30.8002 147.242 29.6674C146.663 28.5258 146.369 27.1911 146.36 25.6631V12.7675H152.801V24.3985C152.81 25.4962 153.1 26.3612 153.67 26.9935C154.241 27.6257 155.018 27.9419 156.002 27.9419C156.643 27.9419 157.218 27.8014 157.727 27.5204C158.246 27.2306 158.654 26.8135 158.952 26.269C159.26 25.7158 159.413 25.0484 159.413 24.2668Z" fill="#143642"/>
</svg>
